<?xml version="1.0" standalone="no"?>
<!DOCTYPE svg PUBLIC "-//W3C//DTD SVG 20010904//EN"
 "http://www.w3.org/TR/2001/REC-SVG-20010904/DTD/svg10.dtd">
<svg version="1.0" xmlns="http://www.w3.org/2000/svg"
 width="533.000000pt" height="533.000000pt" viewBox="0 0 533.000000 533.000000"
 preserveAspectRatio="xMidYMid meet">
<metadata>
Created by potrace 1.11, written by Peter Selinger 2001-2013
</metadata>
<g transform="translate(0.000000,533.000000) scale(0.100000,-0.100000)"
fill="#000000" stroke="none">
<path d="M0 2665 l0 -2665 2665 0 2665 0 0 2665 0 2665 -2665 0 -2665 0 0
-2665z m780 1845 c0 -5 -5 -10 -11 -10 -5 0 -7 5 -4 10 3 6 8 10 11 10 2 0 4
-4 4 -10z m2515 -34 c26 -17 27 -20 11 -32 -16 -11 -15 -13 11 -16 35 -4 28
-22 -11 -26 -17 -2 -47 -12 -68 -23 -20 -10 -48 -19 -61 -19 -12 0 -28 -5 -34
-11 -12 -12 -51 10 -87 50 -19 21 -19 22 3 45 13 14 37 32 55 41 41 21 143 16
181 -9z m-159 -175 c15 -35 36 -123 30 -128 -5 -5 -67 22 -86 39 -41 35 -64
104 -54 157 l6 29 46 -35 c26 -19 52 -47 58 -62z m230 71 c-3 -5 -25 -12 -48
-15 -24 -3 -54 -8 -68 -11 -21 -5 -21 -4 5 8 17 9 44 15 62 16 17 0 35 5 38
11 4 6 9 8 12 5 3 -2 2 -9 -1 -14z m-2341 -32 c0 -8 -8 -16 -17 -18 -13 -2
-18 3 -18 18 0 15 5 20 18 18 9 -2 17 -10 17 -18z m2180 -10 c8 -25 -1 -40
-24 -40 -27 0 -42 20 -30 42 13 24 46 23 54 -2z m-1600 -10 c12 10 14 7 13
-17 -1 -15 3 -37 7 -48 8 -18 7 -18 -8 -6 -9 7 -27 11 -40 9 -20 -4 -22 0 -22
33 0 33 2 36 18 27 12 -6 23 -6 32 2z m1711 -69 c-15 -14 -16 -13 -10 19 10
57 18 68 22 31 2 -22 -2 -39 -12 -50z m43 -2 c-6 -17 -21 -36 -33 -44 -33 -24
-36 -17 -6 15 15 16 31 47 36 67 6 31 8 34 12 15 2 -13 -2 -37 -9 -53z m-2669
57 c0 -3 -4 -8 -10 -11 -5 -3 -10 -1 -10 4 0 6 5 11 10 11 6 0 10 -2 10 -4z
m2255 -21 c-50 -24 -129 -33 -139 -16 -7 10 106 39 154 39 l35 0 -50 -23z m41
-10 c-10 -8 -24 -16 -30 -19 -7 -3 -6 -8 3 -14 11 -8 5 -18 -28 -51 l-42 -41
3 52 c3 52 3 53 48 69 56 21 70 22 46 4z m-896 -15 c0 -5 -4 -10 -10 -10 -5 0
-10 5 -10 10 0 6 5 10 10 10 6 0 10 -4 10 -10z m1147 -79 c30 -14 31 -35 1
-25 -34 10 -54 30 -65 68 -15 50 -2 54 21 8 10 -22 30 -45 43 -51z m-2037 69
c0 -5 -5 -10 -11 -10 -5 0 -7 5 -4 10 3 6 8 10 11 10 2 0 4 -4 4 -10z m1674
-16 c3 -9 6 -40 6 -70 0 -59 -5 -62 -79 -48 -31 6 -31 7 -31 70 l0 64 49 0
c35 0 51 -4 55 -16z m275 -70 c57 -9 66 -13 53 -26 -27 -27 -162 40 -171 87
-2 14 7 10 40 -18 24 -21 58 -39 78 -43z m-107 12 c39 -17 52 -30 63 -65 4
-15 3 -26 -5 -31 -8 -5 -3 -10 14 -14 14 -3 26 -13 26 -21 0 -8 14 -30 31 -50
17 -19 29 -42 26 -49 -4 -10 2 -16 16 -18 15 -2 22 -10 21 -24 0 -16 4 -20 15
-16 14 5 14 3 2 -11 -12 -15 -12 -17 4 -11 11 4 22 2 29 -7 6 -8 28 -22 49
-32 25 -11 36 -22 31 -30 -5 -9 -4 -9 6 0 10 9 20 8 46 -4 34 -17 53 -45 35
-51 -6 -2 -11 -11 -11 -20 0 -15 -2 -15 -10 -2 -8 13 -10 13 -10 -2 0 -9 -6
-19 -12 -21 -9 -4 -9 -8 -3 -14 6 -4 45 -47 88 -96 44 -48 82 -85 87 -82 11 7
122 -113 115 -125 -4 -6 12 -32 36 -58 67 -74 158 -173 197 -214 20 -21 31
-38 26 -38 -9 0 -93 89 -309 329 -27 31 -61 67 -75 82 -14 14 -59 64 -100 110
-41 46 -79 87 -83 90 -5 4 -4 10 2 13 21 13 11 26 -19 26 -17 0 -39 9 -50 20
-11 11 -20 16 -20 11 0 -20 -40 2 -41 23 -1 17 -2 17 -6 4 -6 -23 -15 -23 -46
2 -14 11 -31 20 -39 20 -23 1 -48 26 -48 50 0 18 -3 20 -14 11 -19 -16 -48 12
-39 37 6 14 4 15 -8 5 -12 -10 -21 -4 -52 35 -22 27 -36 53 -34 63 3 11 0 16
-7 13 -7 -3 -21 12 -32 33 -10 21 -23 41 -27 44 -12 9 18 75 40 88 25 14 54
14 95 -3z m176 -62 c23 -7 8 -27 -23 -31 -16 -3 -34 -8 -40 -13 -15 -13 -35 8
-35 36 0 20 4 22 43 17 23 -2 48 -7 55 -9z m-608 -10 c0 -17 -22 -14 -28 4 -2
7 3 12 12 12 9 0 16 -7 16 -16z m647 -16 c-3 -7 -5 -2 -5 12 0 14 2 19 5 13 2
-7 2 -19 0 -25z m-1277 -3 c0 -8 -7 -15 -15 -15 -8 0 -15 7 -15 15 0 8 7 15
15 15 8 0 15 -7 15 -15z m897 1 c7 -6 12 -207 6 -223 -4 -11 -11 -9 -30 9 -19
17 -28 20 -41 12 -9 -6 -18 -20 -19 -30 -3 -17 -2 -17 6 1 9 18 10 17 10 -7 1
-16 7 -28 14 -28 19 -1 63 -38 54 -47 -5 -4 -27 -7 -49 -7 -64 2 -69 15 -67
188 l1 149 55 -6 c30 -3 57 -8 60 -11z m363 -16 c0 -5 -15 -10 -32 -9 -31 1
-32 1 -8 9 35 11 40 11 40 0z m-970 -8 c0 -13 -12 -22 -22 -16 -10 6 -1 24 13
24 5 0 9 -4 9 -8z m988 -68 c-2 -37 -7 -50 -20 -52 -13 -2 -18 3 -18 17 0 12
-4 21 -9 21 -13 0 -21 27 -14 46 7 19 45 35 56 24 5 -4 7 -29 5 -56z m-2158
48 c0 -13 -12 -22 -22 -16 -10 6 -1 24 13 24 5 0 9 -4 9 -8z m2090 1 c0 -10
-20 -40 -20 -31 0 3 -3 13 -6 22 -4 11 -1 16 10 16 9 0 16 -3 16 -7z m-266
-45 c-10 -15 8 -31 18 -17 8 12 10 12 15 1 3 -8 17 -28 32 -45 57 -68 59 -71
33 -65 -12 4 -20 2 -17 -3 4 -5 20 -13 38 -17 21 -6 32 -15 31 -25 -1 -10 5
-17 15 -17 13 0 14 -2 2 -9 -30 -19 -175 15 -183 42 -7 26 4 190 12 177 5 -8
6 -18 4 -22z m-494 -18 c0 -5 3 -15 6 -23 4 -11 -1 -13 -18 -10 -16 3 -23 12
-24 27 -1 18 2 22 17 19 11 -3 19 -9 19 -13z m869 -7 c9 -17 8 -25 -6 -39 -17
-17 -16 -17 9 -11 21 6 28 3 33 -13 4 -12 1 -28 -6 -37 -12 -14 -16 -12 -40
16 -24 29 -25 35 -16 71 6 22 12 38 13 37 1 -1 6 -12 13 -24z m-1269 -77 c0
-3 -4 -8 -10 -11 -5 -3 -10 -1 -10 4 0 6 5 11 10 11 6 0 10 -2 10 -4z m-640
-47 c0 -12 -7 -19 -20 -19 -24 0 -38 29 -20 40 19 12 40 1 40 -21z m1447 25
c-3 -3 -12 -4 -19 -1 -8 3 -5 6 6 6 11 1 17 -2 13 -5z m539 -15 c11 -19 -13
-34 -31 -19 -13 11 -13 15 -3 21 18 12 26 11 34 -2z m-510 -17 c10 -10 27 -21
37 -25 9 -3 17 -13 17 -21 0 -10 -6 -13 -15 -10 -8 4 -15 10 -15 15 0 5 -3 8
-7 7 -11 -3 -63 33 -63 43 0 15 25 10 46 -9z m564 -23 c0 -11 -3 -11 -24 -3
-23 9 -20 23 4 17 11 -3 20 -9 20 -14z m-2610 -19 c12 7 15 1 15 -26 0 -24 -4
-33 -13 -29 -8 3 -20 5 -29 5 -8 0 -13 6 -10 13 2 6 0 20 -5 30 -8 16 -7 17 9
9 10 -6 25 -7 33 -2z m2140 -9 c0 -5 3 -17 7 -26 5 -16 4 -15 -15 1 -26 22
-28 34 -7 34 8 0 15 -4 15 -9z m39 -27 c3 -16 1 -17 -13 -5 -19 16 -21 34 -3
29 6 -3 14 -13 16 -24z m160 17 c9 -6 10 -11 2 -15 -13 -8 -31 1 -31 15 0 11
11 11 29 0z m-33 -14 c3 -3 3 -11 -1 -17 -5 -8 -11 -7 -23 2 -12 10 -14 10 -8
1 5 -9 -1 -13 -23 -13 -38 0 -61 9 -61 24 0 13 104 15 116 3z m76 -22 c0 -15
-62 -34 -114 -34 -27 -1 -48 4 -48 9 0 6 21 10 48 10 26 1 58 7 72 15 27 15
41 15 42 0z m-356 -3 c17 -6 20 -11 13 -29 -9 -25 -24 -28 -63 -13 -37 14 -36
50 2 49 15 -1 37 -4 48 -7z m144 -12 c0 -5 -2 -10 -4 -10 -3 0 -8 5 -11 10 -3
6 -1 10 4 10 6 0 11 -4 11 -10z m40 -6 c0 -2 -7 -4 -15 -4 -8 0 -15 4 -15 10
0 5 7 7 15 4 8 -4 15 -8 15 -10z m-20 -19 c35 -13 62 -15 122 -10 68 6 77 4
72 -9 -4 -10 -1 -16 10 -16 10 0 15 -9 14 -27 0 -16 3 -39 7 -53 21 -73 20
-78 -21 -89 -75 -19 -79 -20 -37 -16 23 3 48 7 55 10 14 6 32 -42 45 -121 4
-27 2 -32 -21 -38 -15 -4 -35 -15 -46 -26 -20 -20 -94 -45 -108 -36 -5 3 -21
30 -37 61 -15 31 -34 59 -42 62 -7 3 -13 13 -13 23 0 10 -7 23 -15 30 -8 7
-15 19 -15 26 0 8 -4 14 -10 14 -5 0 -15 10 -21 22 -9 17 -9 24 5 33 14 11 13
13 -10 26 -54 28 -74 124 -31 146 25 12 33 11 97 -12z m-2510 11 c0 -3 -4 -8
-10 -11 -5 -3 -10 -1 -10 4 0 6 5 11 10 11 6 0 10 -2 10 -4z m3065 -121 c50
-55 118 -128 152 -165 34 -36 75 -81 92 -100 16 -19 36 -35 43 -35 7 -1 12 -6
11 -11 -1 -6 29 -44 67 -85 39 -41 70 -78 70 -84 0 -12 -21 10 -180 185 -68
74 -155 169 -194 210 -140 149 -176 191 -176 203 1 7 5 6 13 -4 7 -9 53 -60
102 -114z m-215 5 c0 -5 -4 -10 -10 -10 -5 0 -10 5 -10 10 0 6 5 10 10 10 6 0
10 -4 10 -10z m463 -66 c-4 -12 -33 -21 -33 -10 0 17 14 34 25 30 8 -3 11 -12
8 -20z m-2508 6 c3 -5 -1 -10 -10 -10 -9 0 -13 5 -10 10 3 6 8 10 10 10 2 0 7
-4 10 -10z m1645 -66 c0 -9 11 -25 25 -36 14 -11 25 -24 25 -31 0 -6 8 -20 18
-31 10 -12 26 -38 35 -59 17 -38 17 -38 -3 -33 -11 3 -29 8 -39 11 -12 4 -23
-1 -29 -12 -8 -14 -15 -16 -38 -8 -15 6 -29 16 -32 23 -3 11 0 12 16 3 11 -6
27 -11 34 -10 7 0 -2 7 -19 15 -35 15 -42 34 -19 56 8 8 11 21 6 29 -9 18 -1
99 11 99 5 0 9 -7 9 -16z m780 -119 c14 -19 14 -19 -2 -6 -10 7 -18 18 -18 24
0 6 1 8 3 6 1 -2 9 -13 17 -24z m-420 -46 c7 -11 9 -23 6 -26 -3 -3 2 -11 10
-18 10 -7 17 -27 18 -51 1 -32 -2 -39 -19 -40 -51 -3 -56 -4 -49 -16 4 -7 -2
-4 -13 7 -19 19 -53 103 -53 131 0 13 42 32 72 33 10 1 22 -8 28 -20z m-234
-55 c19 -23 -7 -124 -31 -124 -21 0 -45 11 -40 19 2 4 -6 7 -18 7 -19 -1 -22
4 -19 32 1 18 9 49 16 67 14 33 16 34 48 23 18 -6 38 -17 44 -24z m1214 21 c0
-8 -7 -15 -15 -15 -8 0 -15 4 -15 9 0 5 -8 12 -17 14 -10 3 -3 5 15 6 22 1 32
-4 32 -14z m-1090 -5 c0 -5 -17 -14 -37 -19 -46 -13 -53 -13 -53 -3 0 5 17 13
38 19 50 14 52 14 52 3z m-233 -14 c1 -1 0 -12 -4 -24 -4 -18 -10 -21 -27 -16
-32 10 -45 24 -39 40 4 11 14 13 37 8 17 -3 32 -7 33 -8z m1043 4 c0 -5 -5
-10 -11 -10 -5 0 -7 5 -4 10 3 6 8 10 11 10 2 0 4 -4 4 -10z m316 -9 c20 -2
74 -64 74 -86 0 -39 -21 -46 -139 -46 -88 0 -111 -3 -111 -14 0 -16 118 -32
147 -20 17 7 17 8 -2 15 -15 6 -7 9 28 9 33 1 47 -3 47 -13 0 -16 -43 -26
-115 -26 -87 0 -115 9 -115 36 0 15 -6 24 -15 24 -44 0 12 112 60 121 16 3
103 3 141 0z m-1112 -23 c10 -40 7 -46 -35 -53 -46 -8 -51 -5 -53 27 -1 18 6
26 34 35 48 16 47 16 54 -9z m886 8 c0 -11 -19 -15 -25 -6 -3 5 1 10 9 10 9 0
16 -2 16 -4z m-1186 -21 c39 -17 47 -27 17 -22 -18 3 -72 35 -60 36 4 1 23 -6
43 -14z m40 -58 c10 -10 32 -23 47 -29 32 -11 33 -15 19 -52 -12 -32 -46 -34
-108 -6 -70 32 -76 42 -51 89 19 38 22 39 47 28 15 -6 35 -20 46 -30z m286 15
c0 -10 -67 -32 -95 -32 -28 0 -8 14 38 27 54 14 57 15 57 5z m116 -57 c6 -16
10 -35 7 -41 -7 -19 -98 -54 -141 -54 -39 0 -40 1 -56 49 -20 62 -20 64 2 59
10 -3 26 0 34 6 9 7 44 12 79 11 60 0 63 -1 75 -30z m710 -24 c-6 -9 -46 -22
-46 -15 0 3 10 9 23 14 29 11 29 11 23 1z m59 -1 c-3 -5 -10 -10 -16 -10 -5 0
-9 5 -9 10 0 6 7 10 16 10 8 0 12 -4 9 -10z m-1231 -25 c27 -14 65 -25 84 -25
23 0 32 -4 29 -12 -6 -20 -101 -14 -139 9 -30 17 -51 53 -31 53 4 0 30 -11 57
-25z m1571 12 c10 -8 14 -16 9 -19 -5 -3 -17 3 -26 14 -21 21 -10 24 17 5z
m-215 -21 c52 0 112 2 133 4 45 4 55 -4 34 -27 -8 -10 -20 -30 -26 -44 -6 -18
-19 -28 -41 -33 -44 -8 -165 -6 -220 4 -42 7 -39 8 28 8 42 -1 78 4 85 11 6 6
22 11 36 11 13 0 21 3 18 7 -4 3 -2 12 4 19 16 19 1 22 -123 26 -95 2 -114 5
-105 16 8 10 21 11 46 5 20 -4 79 -8 131 -7z m-867 -10 c3 -8 0 -19 -6 -25
-20 -16 -107 -51 -128 -51 -10 0 -19 -4 -19 -9 0 -9 12 -9 84 5 34 6 39 5 33
-10 -5 -13 2 -12 39 8 32 17 53 22 68 17 21 -8 48 -49 41 -61 -7 -11 -197 -21
-243 -14 -39 6 -41 8 -35 37 4 21 3 28 -6 23 -6 -4 -14 0 -17 9 -8 20 -3 25
32 31 57 10 100 24 119 38 25 19 32 19 38 2z m675 -22 c15 -17 22 -37 21 -62
l0 -37 -15 46 c-13 44 -42 69 -79 69 -8 0 -15 5 -15 11 0 19 64 -1 88 -27z
m507 1 c27 -26 35 -88 14 -101 -8 -5 -10 2 -6 21 7 41 -10 72 -52 89 -35 15
-35 15 -8 15 17 1 38 -9 52 -24z m-1682 -9 c26 -10 47 -24 47 -30 0 -7 3 -6 8
2 7 10 14 10 38 1 16 -7 37 -13 46 -14 31 -4 49 -27 46 -59 -3 -30 -4 -31 -60
-33 -32 -1 -58 3 -58 8 0 5 26 9 58 9 31 0 52 4 45 8 -6 4 -36 5 -66 4 -43 -3
-54 -7 -50 -18 3 -9 -1 -14 -12 -14 -11 0 -15 6 -11 18 3 13 -9 24 -51 45 -60
30 -84 30 -34 1 31 -18 40 -34 21 -34 -5 0 -10 5 -10 10 0 6 -5 10 -11 10 -20
0 -38 27 -32 49 3 11 10 18 16 14 6 -3 7 -1 3 6 -9 14 0 44 12 39 4 -2 28 -11
55 -22z m1546 -23 c-12 -32 -5 -65 17 -88 23 -23 8 -32 -16 -10 -28 25 -27
125 1 125 5 0 4 -12 -2 -27z m-415 4 c21 -16 18 -55 -5 -70 -9 -5 -28 -7 -42
-3 -21 5 -27 12 -27 34 0 48 36 67 74 39z m515 4 c7 -5 14 -21 14 -36 0 -49
-65 -64 -85 -21 -13 31 -4 60 18 52 8 -3 12 -2 9 4 -8 12 25 13 44 1z m-1147
-23 c-6 -6 -16 -7 -22 -3 -9 6 -9 9 1 16 17 10 34 0 21 -13z m530 -51 c6 -15
23 -35 37 -43 l26 -15 -25 7 c-37 9 -60 41 -59 83 1 20 3 27 6 16 2 -11 9 -33
15 -48z m471 1 c-6 -10 -254 -10 -270 0 -6 4 53 7 132 7 79 0 141 -3 138 -7z
m-1483 -30 c0 -13 -23 -5 -28 10 -2 7 2 10 12 6 9 -3 16 -11 16 -16z m445 -9
c22 2 64 4 93 6 28 1 52 -1 52 -6 0 -5 -24 -10 -52 -10 -29 -1 -84 -3 -121 -4
-37 -1 -70 2 -73 7 -3 4 -9 6 -14 3 -5 -3 -12 0 -16 6 -5 9 6 10 42 4 27 -4
67 -7 89 -6z m1343 -16 c74 -46 83 -74 78 -231 -6 -187 -33 -363 -86 -572 -11
-45 -64 -162 -142 -314 -43 -83 -215 -348 -230 -354 -5 -2 -19 -20 -33 -40
-29 -43 -184 -202 -197 -202 -5 0 -30 -18 -56 -39 -26 -21 -63 -48 -82 -58
-19 -10 -52 -35 -73 -55 -21 -19 -70 -52 -110 -72 -39 -21 -96 -52 -127 -71
-77 -47 -131 -70 -235 -101 -49 -15 -95 -31 -100 -35 -58 -44 -432 -109 -624
-109 -93 1 -113 3 -100 13 13 10 2 12 -60 10 -124 -3 -321 34 -515 98 -90 29
-296 132 -384 191 -27 18 -76 50 -108 71 -138 88 -186 127 -309 251 -140 140
-194 205 -160 192 18 -7 18 -6 1 13 -10 11 -22 18 -26 16 -9 -6 -71 67 -116
135 -49 73 -142 242 -157 285 -24 69 -37 111 -37 124 0 7 -14 47 -30 89 -43
106 -76 255 -90 402 -10 113 -10 130 6 168 9 24 14 46 10 49 -3 4 -6 -2 -6
-13 0 -15 -2 -16 -9 -4 -6 8 -7 19 -3 24 3 6 5 22 4 36 -2 36 18 57 61 65 32
6 37 5 38 -11 0 -11 3 -14 6 -6 2 6 12 12 20 12 11 0 14 -6 10 -21 -10 -37 3
-79 24 -79 11 0 19 -7 19 -17 0 -15 2 -16 10 -3 8 12 10 12 10 1 0 -36 14 5
16 47 2 46 -9 72 -28 72 -6 0 -5 -7 2 -15 10 -12 10 -15 -4 -15 -9 0 -16 8
-16 20 0 30 62 28 83 -2 19 -29 33 -18 17 13 -11 20 -10 21 6 14 11 -4 24 -7
29 -7 6 1 33 3 60 5 28 2 91 0 141 -5 85 -8 94 -7 128 13 24 14 46 19 64 16
89 -18 114 -26 131 -41 22 -20 31 -20 31 -1 0 9 -6 12 -17 8 -11 -4 -14 -3 -9
6 9 14 52 7 76 -13 19 -16 80 -29 80 -17 0 5 -5 11 -12 13 -7 3 10 10 36 18
38 10 55 11 80 2 18 -7 51 -12 74 -12 33 0 40 -3 36 -15 -4 -10 0 -15 11 -15
11 0 15 5 10 19 -5 18 1 19 171 15 111 -2 181 -7 190 -15 7 -6 43 -12 80 -14
l67 -3 -39 23 c-38 24 -80 34 -70 17 3 -5 -9 -6 -27 -4 -27 4 -29 6 -12 13 11
4 34 8 52 8 17 1 35 6 38 11 10 17 37 11 95 -20 91 -49 102 -52 111 -38 5 8 2
15 -9 19 -15 6 -15 8 2 15 19 7 19 8 0 15 -13 5 -6 8 24 8 29 1 52 -6 71 -20
17 -13 34 -18 42 -14 8 5 10 4 5 -3 -10 -16 -5 -15 35 5 35 18 121 21 272 12
37 -2 67 -1 67 3 0 16 123 9 141 -8 17 -15 19 -15 35 0 9 9 21 15 27 13 14 -4
18 -39 6 -53 -7 -9 -4 -17 10 -26 12 -8 18 -18 14 -21 -3 -4 -1 -7 6 -7 7 0
10 7 6 19 -9 29 18 44 65 36 26 -4 40 -3 40 4 0 6 -7 11 -15 11 -8 0 -29 9
-47 20 -40 24 -34 25 26 5 41 -14 49 -14 82 0 24 10 41 12 48 5 8 -6 25 -5 50
2 29 9 42 9 56 0 11 -6 26 -9 34 -6 9 3 28 2 44 -4 21 -7 37 -6 61 4 41 17 66
18 31 1 -14 -7 -26 -18 -28 -26 -4 -18 17 -41 38 -41 19 0 35 40 17 41 -7 0
-3 4 8 9 14 6 16 9 5 11 -22 3 109 21 155 21 44 1 127 -20 163 -40 20 -11 22
-11 22 8 0 16 -7 20 -32 21 -32 0 -32 1 -9 10 14 5 32 7 40 3 18 -8 105 -24
136 -26 11 -1 29 2 40 7 16 7 18 6 8 -6 -7 -7 -13 -16 -13 -20 0 -7 34 -20 63
-24 30 -4 19 33 -17 52 -22 12 202 11 275 -2 31 -5 49 -4 53 4 4 6 17 11 29
11 16 0 18 3 9 12 -9 9 -18 9 -38 -1 -24 -11 -26 -10 -14 3 16 21 54 20 88 -1z
m-1468 -23 c0 -5 -4 -10 -10 -10 -5 0 -10 5 -10 10 0 6 5 10 10 10 6 0 10 -4
10 -10z m1357 4 c-3 -3 -12 -4 -19 -1 -8 3 -5 6 6 6 11 1 17 -2 13 -5z m-1347
-34 c0 -5 -4 -10 -10 -10 -5 0 -10 5 -10 10 0 6 5 10 10 10 6 0 10 -4 10 -10z"/>
<path d="M2975 4120 c-9 -15 4 -30 26 -30 12 0 19 7 19 20 0 21 -33 29 -45 10z
m35 -4 c0 -3 -4 -8 -10 -11 -5 -3 -10 -1 -10 4 0 6 5 11 10 11 6 0 10 -2 10
-4z"/>
<path d="M3125 3909 c-12 -19 5 -23 22 -6 16 16 16 17 1 17 -9 0 -20 -5 -23
-11z"/>
<path d="M3206 3865 c-9 -26 -7 -32 5 -12 6 10 9 21 6 23 -2 3 -7 -2 -11 -11z"/>
<path d="M3580 3493 c0 -5 26 -33 57 -63 l57 -55 -42 51 c-46 57 -72 81 -72
67z"/>
<path d="M3081 3624 c0 -11 3 -14 6 -6 3 7 2 16 -1 19 -3 4 -6 -2 -5 -13z"/>
<path d="M3158 3613 c7 -3 16 -2 19 1 4 3 -2 6 -13 5 -11 0 -14 -3 -6 -6z"/>
<path d="M3096 3560 c3 -25 12 -52 21 -60 15 -13 16 -13 6 0 -6 8 -16 35 -22
60 l-11 45 6 -45z"/>
<path d="M3240 3235 c0 -5 5 -17 10 -25 5 -8 10 -10 10 -5 0 6 -5 17 -10 25
-5 8 -10 11 -10 5z"/>
<path d="M4152 3207 c-43 -44 -41 -63 6 -71 85 -14 222 -1 230 22 3 9 -26 12
-120 13 -103 1 -115 3 -73 10 28 5 56 6 63 4 8 -3 20 2 28 10 9 8 11 15 5 15
-6 0 -8 7 -5 15 5 12 -4 15 -48 15 -48 0 -58 -4 -86 -33z"/>
<path d="M3263 2933 c9 -2 25 -2 35 0 9 3 1 5 -18 5 -19 0 -27 -2 -17 -5z"/>
<path d="M2845 3010 c3 -5 11 -10 16 -10 6 0 7 5 4 10 -3 6 -11 10 -16 10 -6
0 -7 -4 -4 -10z"/>
<path d="M2830 2984 c0 -3 16 -12 35 -20 37 -15 110 -19 101 -6 -3 5 -18 7
-34 4 -16 -2 -45 3 -65 12 -20 8 -37 13 -37 10z"/>
<path d="M3970 2954 c0 -23 1 -24 16 -10 8 9 12 20 9 26 -12 19 -25 10 -25
-16z"/>
<path d="M4486 2972 c-3 -6 -1 -14 5 -17 15 -10 25 3 12 16 -7 7 -13 7 -17 1z"/>
<path d="M2267 2863 c-11 -10 26 -32 53 -32 15 0 19 3 10 6 -8 3 -19 12 -23
19 -8 15 -29 18 -40 7z"/>
<path d="M2495 2833 c-3 -14 -2 -29 3 -32 14 -9 36 -55 23 -47 -16 10 -13 -25
4 -48 15 -20 35 -14 35 10 0 8 -4 13 -9 9 -14 -8 -21 9 -10 25 6 10 9 11 9 3
0 -7 7 -13 15 -13 8 0 15 7 15 15 0 8 -7 15 -15 15 -24 0 -57 39 -50 60 3 10
2 21 -4 24 -5 3 -12 -6 -16 -21z"/>
<path d="M3854 2850 c-14 -5 -10 -8 19 -12 21 -2 40 -1 42 3 7 10 -38 17 -61
9z"/>
<path d="M2687 2843 c-26 -7 -10 -23 24 -23 27 0 29 2 15 15 -8 8 -16 14 -18
14 -2 -1 -11 -3 -21 -6z"/>
<path d="M3030 2840 c-19 -12 5 -21 31 -12 22 9 22 9 2 14 -11 3 -26 2 -33 -2z"/>
<path d="M3497 2839 c7 -7 15 -10 18 -7 3 3 -2 9 -12 12 -14 6 -15 5 -6 -5z"/>
<path d="M4359 2840 c-18 -12 -5 -23 31 -26 36 -2 37 -1 7 19 -15 10 -29 12
-38 7z"/>
<path d="M4667 2843 c-10 -9 -8 -51 2 -57 8 -6 21 25 21 52 0 13 -13 16 -23 5z"/>
<path d="M1330 2830 c0 -5 5 -10 11 -10 5 0 7 5 4 10 -3 6 -8 10 -11 10 -2 0
-4 -4 -4 -10z"/>
<path d="M1638 2833 c6 -2 12 -11 12 -19 0 -8 5 -14 10 -14 17 0 11 -18 -7
-23 -11 -3 -7 -5 10 -6 32 -1 31 -3 11 37 -8 18 -23 32 -32 31 -11 0 -12 -2
-4 -6z"/>
<path d="M4143 2823 c9 -9 20 -13 24 -9 4 4 1 11 -7 16 -25 16 -35 11 -17 -7z"/>
<path d="M910 2820 c0 -13 11 -13 30 0 12 8 11 10 -7 10 -13 0 -23 -4 -23 -10z"/>
<path d="M1081 2821 c-10 -7 -11 -13 -2 -27 9 -17 10 -17 11 -1 0 24 21 22 27
-3 3 -11 7 -20 9 -20 8 0 44 40 37 41 -15 1 -38 7 -53 13 -8 3 -21 2 -29 -3z"/>
<path d="M1215 2820 c-3 -5 -2 -10 4 -10 5 0 13 5 16 10 3 6 2 10 -4 10 -5 0
-13 -4 -16 -10z"/>
<path d="M2045 2819 c-3 -4 19 -23 49 -43 31 -21 58 -48 66 -66 7 -16 16 -30
21 -30 11 0 12 14 2 24 -5 4 -8 11 -8 14 -2 22 -30 54 -60 67 -19 7 -35 20
-35 28 0 14 -27 19 -35 6z"/>
<path d="M2540 2820 c8 -5 20 -10 25 -10 6 0 3 5 -5 10 -8 5 -19 10 -25 10 -5
0 -3 -5 5 -10z"/>
<path d="M3545 2816 c-17 -12 -18 -15 -3 -30 9 -8 19 -21 22 -28 5 -10 7 -10
12 0 9 20 26 14 19 -7 -3 -11 -2 -22 4 -25 5 -3 11 12 13 34 6 62 -25 87 -67
56z"/>
<path d="M3873 2816 c4 -11 1 -13 -10 -9 -12 5 -14 3 -8 -6 4 -8 2 -17 -6 -21
-9 -6 -5 -11 14 -15 30 -8 68 2 51 13 -6 4 -14 17 -18 30 -4 12 -12 22 -18 22
-5 0 -8 -7 -5 -14z"/>
<path d="M3978 2818 c9 -9 15 -9 24 0 9 9 7 12 -12 12 -19 0 -21 -3 -12 -12z"/>
<path d="M4620 2820 c0 -5 7 -10 15 -10 8 0 15 5 15 10 0 6 -7 10 -15 10 -8 0
-15 -4 -15 -10z"/>
<path d="M1015 2810 c-3 -6 1 -7 9 -4 18 7 21 14 7 14 -6 0 -13 -4 -16 -10z"/>
<path d="M1700 2810 c0 -5 5 -10 10 -10 6 0 10 5 10 10 0 6 -4 10 -10 10 -5 0
-10 -4 -10 -10z"/>
<path d="M2880 2810 c0 -5 7 -10 16 -10 8 0 12 5 9 10 -3 6 -10 10 -16 10 -5
0 -9 -4 -9 -10z"/>
<path d="M3103 2813 c-21 -8 -15 -26 7 -20 14 3 20 0 20 -10 0 -12 3 -13 15
-3 12 10 12 14 0 26 -14 15 -22 16 -42 7z"/>
<path d="M962 2803 c3 -11 -54 -63 -70 -63 -5 0 -15 -7 -22 -15 -10 -13 -9
-15 8 -15 17 0 20 -6 19 -35 -1 -19 -5 -35 -9 -35 -5 0 -8 5 -8 10 0 6 -4 10
-10 10 -16 0 -12 -50 5 -56 27 -11 17 -34 -16 -34 -17 0 -28 -4 -24 -10 4 -6
24 -8 48 -4 31 4 38 3 27 -5 -11 -8 -11 -11 -2 -11 13 0 19 11 24 45 2 14 -2
19 -14 17 -10 -2 -18 2 -18 8 0 5 6 10 14 10 22 0 29 19 14 37 -9 12 -9 15 0
9 6 -4 12 -3 12 3 0 5 -4 11 -10 13 -12 4 -1 48 12 48 6 0 8 -7 4 -15 -3 -8
-2 -15 3 -15 14 0 19 36 8 55 -8 15 -7 17 7 12 9 -4 15 -3 11 2 -3 5 0 11 6
13 7 2 5 9 -5 18 -10 7 -16 9 -14 3z"/>
<path d="M2975 2803 c-38 -10 -47 -24 -25 -40 11 -8 29 -15 39 -16 15 -1 17
-4 8 -19 -17 -26 43 -83 78 -74 14 4 25 11 25 17 0 6 -8 8 -17 5 -14 -4 -18 0
-19 18 -1 14 4 27 12 30 19 7 18 35 -1 42 -8 4 -22 1 -29 -6 -11 -8 -20 -9
-36 0 -27 15 -20 36 11 32 19 -2 21 -1 9 7 -16 11 -23 12 -55 4z"/>
<path d="M3455 2800 c3 -5 11 -10 16 -10 6 0 7 5 4 10 -3 6 -11 10 -16 10 -6
0 -7 -4 -4 -10z"/>
<path d="M4540 2799 c0 -11 36 -30 44 -22 14 14 5 28 -19 29 -14 1 -25 -2 -25
-7z"/>
<path d="M4734 2796 c4 -10 2 -24 -4 -31 -6 -8 -5 -18 5 -31 11 -15 15 -16 15
-4 1 8 3 23 5 32 2 9 -4 25 -12 35 -14 17 -14 17 -9 -1z"/>
<path d="M596 2783 c-4 -9 -2 -21 4 -27 7 -7 10 -3 10 11 0 12 6 24 13 26 7 4
6 6 -4 6 -9 1 -20 -7 -23 -16z"/>
<path d="M880 2785 c-10 -12 -10 -15 4 -15 9 0 16 7 16 15 0 8 -2 15 -4 15 -2
0 -9 -7 -16 -15z"/>
<path d="M1456 2791 c-3 -5 1 -12 10 -15 20 -8 29 -1 19 13 -8 13 -22 14 -29
2z"/>
<path d="M1811 2768 c-18 -18 -29 -25 -26 -15 4 10 2 17 -4 17 -6 0 -11 -9
-11 -20 0 -21 24 -27 36 -9 3 6 17 9 30 6 27 -5 42 8 19 17 -8 3 -12 12 -9 21
9 23 0 18 -35 -17z"/>
<path d="M2540 2790 c8 -5 22 -9 30 -9 10 0 8 3 -5 9 -27 12 -43 12 -25 0z"/>
<path d="M1004 2779 c-3 -6 -1 -16 5 -22 8 -8 11 -5 11 11 0 24 -5 28 -16 11z"/>
<path d="M1035 2780 c-3 -5 -1 -10 4 -10 6 0 11 5 11 10 0 6 -2 10 -4 10 -3 0
-8 -4 -11 -10z"/>
<path d="M2396 2781 c-3 -5 1 -11 9 -14 9 -4 12 -1 8 9 -6 16 -10 17 -17 5z"/>
<path d="M4158 2783 c7 -3 16 -2 19 1 4 3 -2 6 -13 5 -11 0 -14 -3 -6 -6z"/>
<path d="M1934 2755 c-4 -14 -4 -29 0 -32 3 -4 6 4 6 16 0 17 4 22 16 17 14
-5 15 -4 4 9 -17 20 -19 19 -26 -10z"/>
<path d="M1302 2748 c-5 -48 -10 -63 -22 -60 -7 2 -9 -5 -5 -20 6 -22 6 -22
-9 -4 -9 11 -16 14 -16 8 0 -7 -5 -11 -11 -9 -6 1 -13 -3 -16 -10 -3 -8 8 -11
34 -9 29 2 38 6 36 20 -1 14 6 17 38 15 47 -4 61 6 19 14 -27 6 -30 10 -30 42
0 38 -14 49 -18 13z"/>
<path d="M1340 2760 c0 -5 5 -10 11 -10 5 0 7 5 4 10 -3 6 -8 10 -11 10 -2 0
-4 -4 -4 -10z"/>
<path d="M1468 2753 c-11 -3 -18 -14 -18 -29 0 -14 4 -22 10 -19 6 3 10 1 10
-4 0 -6 -4 -11 -9 -11 -11 0 -11 -50 0 -72 7 -12 4 -20 -8 -27 -17 -9 -16 -11
5 -31 12 -11 22 -28 22 -36 0 -11 6 -14 16 -10 9 4 14 1 12 -6 -9 -25 -78 -11
-78 17 0 23 -30 65 -46 65 -8 0 -19 -11 -24 -25 -5 -14 -16 -25 -25 -25 -19 0
-11 -45 13 -73 18 -20 27 -127 11 -127 -6 0 -7 -5 -4 -10 4 -6 12 -7 22 -1 20
11 69 -5 77 -24 6 -17 -10 -30 -19 -15 -4 6 -11 8 -16 4 -5 -3 -7 -9 -5 -13 3
-4 0 -8 -7 -9 -7 0 -21 -3 -32 -6 -11 -2 -26 -5 -32 -5 -7 -1 -13 -6 -13 -11
0 -7 6 -8 17 -1 10 5 26 5 40 0 14 -5 23 -5 23 1 0 6 8 10 18 10 13 0 18 -8
18 -25 0 -17 -5 -25 -18 -25 -18 0 -22 -9 -19 -42 1 -10 -3 -26 -9 -38 -9 -17
-8 -20 10 -20 11 0 19 5 18 11 -2 6 3 14 10 16 6 3 12 0 12 -6 0 -6 7 -11 15
-11 9 0 15 9 15 25 0 17 -6 25 -17 25 -15 0 -16 2 -3 9 10 7 18 4 28 -10 7
-10 18 -19 24 -19 7 0 6 6 -2 15 -10 12 -9 15 4 15 19 0 35 -36 28 -62 -4 -15
-6 -15 -19 -3 -17 17 -33 20 -33 5 0 -5 4 -10 9 -10 6 0 6 -12 0 -32 -5 -18
-9 -34 -9 -35 0 -1 7 0 16 4 14 5 16 1 12 -22 -8 -39 -1 -54 24 -47 21 5 21 8
2 87 l-7 30 23 -28 c12 -15 35 -34 51 -42 16 -9 29 -23 29 -33 0 -12 3 -14 8
-4 9 13 110 13 118 0 3 -4 16 -8 30 -8 13 0 24 -6 24 -12 0 -8 7 -5 15 6 15
20 20 12 15 -23 -1 -13 1 -13 15 -1 11 9 13 16 5 24 -24 24 -11 46 35 57 25 6
45 16 45 21 0 5 3 7 8 5 4 -3 15 6 26 20 18 24 18 25 0 21 -11 -2 -18 -10 -16
-17 1 -7 -15 1 -38 19 -34 27 -40 29 -41 13 -1 -13 -3 -11 -9 7 -5 17 -8 19
-9 8 -1 -10 -8 -18 -16 -18 -18 0 -19 -12 -3 -28 10 -10 7 -16 -12 -29 -37
-26 -49 -24 -65 7 -11 21 -20 27 -35 23 -11 -3 -20 -10 -20 -15 0 -5 5 -6 10
-3 6 3 10 2 10 -3 0 -5 9 -12 20 -15 11 -3 20 -10 20 -16 0 -6 -9 -11 -20 -11
-11 0 -20 4 -20 9 0 6 -9 8 -20 6 -11 -2 -18 0 -15 4 2 5 -2 15 -11 22 -13 10
-17 10 -24 0 -6 -10 -9 -10 -15 -1 -4 7 -2 16 5 20 16 10 4 31 -14 24 -17 -6
-31 12 -16 21 5 3 10 11 10 17 0 7 -4 7 -13 -1 -8 -6 -17 -7 -22 -3 -8 7 -4
-14 10 -53 6 -16 5 -17 -4 -5 -10 13 -12 13 -22 0 -8 -12 -9 -10 -4 8 6 22
-10 32 -17 10 -3 -7 -7 -5 -11 6 -4 11 -3 15 4 10 8 -4 9 1 4 16 -5 15 -3 20
3 16 6 -3 13 -3 15 1 3 5 -12 18 -32 31 -33 21 -53 62 -30 62 14 0 11 36 -5
49 -8 7 -14 27 -13 45 1 32 2 33 28 26 31 -9 39 -5 39 22 0 25 15 23 27 -4 9
-21 10 -21 26 12 10 18 15 42 11 52 -3 10 -1 18 5 18 6 0 11 -11 11 -25 0 -14
5 -25 10 -25 6 0 10 8 8 17 -2 11 5 19 17 21 12 2 16 0 9 -5 -8 -5 -8 -16 -3
-31 11 -29 29 -20 29 14 0 20 4 24 19 19 13 -4 24 1 34 15 12 17 19 19 40 11
22 -9 26 -7 31 14 5 20 10 23 29 16 12 -5 25 -9 30 -10 4 0 8 -1 10 -2 38 -11
60 14 31 36 -16 11 -16 13 1 22 17 10 17 11 -4 18 -16 5 -21 13 -18 26 3 10 0
19 -6 19 -8 0 -8 3 1 12 8 8 15 8 27 -2 12 -10 15 -10 15 2 0 9 9 27 20 41 11
14 20 27 20 29 0 1 -16 3 -35 3 -19 0 -35 -4 -35 -9 0 -4 -7 -5 -16 -2 -14 5
-15 4 -4 -9 7 -9 20 -13 29 -10 9 3 -2 -10 -24 -29 -22 -20 -44 -36 -50 -36
-5 1 -2 5 9 11 13 8 15 13 6 19 -6 4 -14 26 -17 49 -6 45 -24 61 -47 42 -16
-14 -9 -61 10 -61 21 0 24 -16 4 -17 -22 -2 -29 6 -35 39 -3 12 -10 25 -16 29
-15 9 -39 1 -39 -13 0 -5 4 -7 9 -3 5 3 13 0 17 -7 4 -7 4 -10 -1 -6 -4 4 -17
3 -28 -3 -15 -9 -18 -8 -12 3 4 7 -6 -1 -22 -18 -36 -37 -61 -48 -79 -33 -20
16 -18 32 2 21 12 -7 22 -4 35 9 20 20 25 34 9 24 -14 -9 -48 12 -55 34 -3 11
-13 22 -21 25 -12 5 -15 2 -10 -10 4 -10 -3 -25 -18 -39 -19 -18 -27 -20 -43
-11 -11 6 -18 17 -16 24 3 6 0 12 -6 12 -6 0 -8 6 -5 14 6 17 -5 24 -28 19z
m12 -23 c0 -5 -5 -10 -11 -10 -5 0 -7 5 -4 10 3 6 8 10 11 10 2 0 4 -4 4 -10z
m260 -110 c0 -5 -7 -10 -16 -10 -8 0 -12 5 -9 10 3 6 10 10 16 10 5 0 9 -4 9
-10z m163 -86 c-4 -12 -8 -13 -14 -3 -9 15 -2 32 11 24 5 -3 6 -13 3 -21z
m-433 -48 c0 -3 -4 -8 -10 -11 -5 -3 -10 -1 -10 4 0 6 5 11 10 11 6 0 10 -2
10 -4z m250 -12 c0 -8 -4 -12 -10 -9 -5 3 -10 10 -10 16 0 5 5 9 10 9 6 0 10
-7 10 -16z m-221 -7 c-9 -7 -14 -19 -12 -27 3 -10 0 -9 -7 3 -13 21 -5 37 18
37 15 -1 16 -2 1 -13z m-55 -56 c7 -10 -22 -37 -30 -28 -9 8 3 37 15 37 5 0
12 -4 15 -9z"/>
<path d="M1745 2750 c3 -5 8 -10 11 -10 2 0 4 5 4 10 0 6 -5 10 -11 10 -5 0
-7 -4 -4 -10z"/>
<path d="M1895 2750 c3 -5 11 -10 16 -10 6 0 7 5 4 10 -3 6 -11 10 -16 10 -6
0 -7 -4 -4 -10z"/>
<path d="M2761 2738 c15 -27 27 -30 54 -12 32 21 28 24 -23 27 -35 2 -39 0
-31 -15z"/>
<path d="M3265 2750 c3 -5 8 -10 11 -10 2 0 4 5 4 10 0 6 -5 10 -11 10 -5 0
-7 -4 -4 -10z"/>
<path d="M3447 2752 c-15 -6 -13 -9 13 -19 33 -12 33 -12 24 11 -7 17 -10 18
-37 8z"/>
<path d="M3500 2749 c0 -5 5 -7 10 -4 6 3 10 8 10 11 0 2 -4 4 -10 4 -5 0 -10
-5 -10 -11z"/>
<path d="M3846 2751 c-3 -5 1 -11 9 -15 8 -3 15 -1 15 4 0 13 -18 22 -24 11z"/>
<path d="M4180 2750 c0 -5 5 -10 10 -10 6 0 10 5 10 10 0 6 -4 10 -10 10 -5 0
-10 -4 -10 -10z"/>
<path d="M624 2725 c-3 -14 -3 -33 1 -42 6 -17 7 -17 19 0 14 18 10 67 -5 67
-5 0 -11 -11 -15 -25z"/>
<path d="M988 2725 c-3 -14 -1 -25 3 -25 5 0 9 5 9 11 0 5 6 7 13 3 7 -5 7 -1
-3 12 -8 10 -15 20 -16 22 -1 2 -4 -9 -6 -23z"/>
<path d="M2880 2735 c-11 -13 -6 -15 31 -15 41 1 43 2 25 15 -25 19 -40 19
-56 0z"/>
<path d="M4702 2725 c0 -16 2 -22 5 -12 2 9 2 23 0 30 -3 6 -5 -1 -5 -18z"/>
<path d="M1515 2730 c3 -5 8 -10 11 -10 2 0 4 5 4 10 0 6 -5 10 -11 10 -5 0
-7 -4 -4 -10z"/>
<path d="M2600 2725 c0 -16 16 -20 24 -6 3 5 -1 11 -9 15 -9 3 -15 0 -15 -9z"/>
<path d="M844 2708 c4 -16 2 -28 -3 -28 -12 0 -35 -79 -27 -88 3 -3 6 1 7 9 0
8 4 6 8 -6 7 -17 8 -17 13 8 3 15 1 27 -3 27 -5 0 -9 8 -9 18 0 14 2 15 10 2
8 -13 10 -13 10 2 0 9 5 18 11 20 6 2 4 14 -6 33 l-17 30 6 -27z"/>
<path d="M1390 2720 c0 -5 5 -10 10 -10 6 0 10 5 10 10 0 6 -4 10 -10 10 -5 0
-10 -4 -10 -10z"/>
<path d="M3409 2719 c-10 -6 -7 -9 14 -9 29 0 35 5 14 13 -8 3 -20 1 -28 -4z"/>
<path d="M3540 2721 c0 -5 9 -11 19 -14 14 -3 18 -1 14 9 -6 15 -33 19 -33 5z"/>
<path d="M2575 2710 c3 -5 8 -10 11 -10 2 0 4 5 4 10 0 6 -5 10 -11 10 -5 0
-7 -4 -4 -10z"/>
<path d="M1080 2700 c0 -5 5 -10 10 -10 6 0 10 5 10 10 0 6 -4 10 -10 10 -5 0
-10 -4 -10 -10z"/>
<path d="M1116 2696 c3 -8 13 -12 25 -9 27 7 24 23 -6 23 -17 0 -23 -4 -19
-14z"/>
<path d="M2248 2698 c9 -9 15 -9 24 0 9 9 7 12 -12 12 -19 0 -21 -3 -12 -12z"/>
<path d="M960 2667 c0 -15 4 -27 9 -27 6 0 8 10 6 21 -6 33 -15 36 -15 6z"/>
<path d="M2490 2680 c0 -6 7 -10 15 -10 8 0 15 2 15 4 0 2 -7 6 -15 10 -8 3
-15 1 -15 -4z"/>
<path d="M4640 2675 c0 -8 5 -15 10 -15 6 0 10 7 10 15 0 8 -4 15 -10 15 -5 0
-10 -7 -10 -15z"/>
<path d="M1325 2660 c3 -5 8 -10 11 -10 2 0 4 5 4 10 0 6 -5 10 -11 10 -5 0
-7 -4 -4 -10z"/>
<path d="M1886 2662 c-3 -4 4 -9 15 -9 23 -2 25 3 4 10 -8 4 -16 3 -19 -1z"/>
<path d="M2530 2661 c0 -6 -8 -7 -17 -4 -16 6 -16 5 -3 -8 8 -8 23 -18 32 -22
14 -5 17 -2 14 15 -3 22 -26 39 -26 19z"/>
<path d="M2665 2661 c-11 -5 -23 -7 -28 -4 -4 2 -5 -6 -3 -19 3 -13 5 -25 5
-28 1 -2 8 6 17 18 12 17 21 21 37 16 19 -6 20 -5 8 10 -7 9 -14 16 -15 15 0
0 -10 -4 -21 -8z"/>
<path d="M4287 2659 c-9 -6 -26 -7 -37 -4 -15 5 -18 3 -14 -9 8 -22 31 -20 61
4 27 21 21 27 -10 9z"/>
<path d="M1029 2655 c-13 -21 3 -83 22 -88 24 -6 26 -1 18 48 -5 34 -6 35 -8
11 -1 -35 -17 -24 -23 14 -2 14 -6 21 -9 15z"/>
<path d="M2743 2631 c-30 -20 -39 -31 -32 -42 7 -11 9 -11 9 4 0 9 7 17 15 17
16 0 38 -34 28 -44 -3 -3 11 -5 33 -5 21 1 30 4 19 6 -11 2 -28 14 -37 27 -16
23 -16 23 10 20 15 -2 19 -1 9 2 -13 4 -17 12 -14 25 3 10 4 19 4 19 -1 0 -21
-13 -44 -29z"/>
<path d="M2430 2620 c0 -5 6 -10 14 -10 8 0 18 5 21 10 3 6 -3 10 -14 10 -12
0 -21 -4 -21 -10z"/>
<path d="M4041 2610 c14 -31 19 -36 19 -24 0 6 -7 19 -16 30 -14 18 -14 18 -3
-6z"/>
<path d="M4616 2595 c8 -50 14 -58 14 -19 0 16 -5 36 -11 44 -7 11 -8 4 -3
-25z"/>
<path d="M1002 2595 c0 -16 2 -22 5 -12 2 9 2 23 0 30 -3 6 -5 -1 -5 -18z"/>
<path d="M1312 2605 c-11 -13 -10 -15 7 -15 14 0 19 5 15 15 -7 18 -6 18 -22
0z"/>
<path d="M787 2603 c-10 -9 -9 -33 1 -33 4 0 8 9 8 20 0 23 0 22 -9 13z"/>
<path d="M2137 2604 c-4 -4 3 -18 13 -32 23 -29 25 -42 8 -42 -28 0 -41 -17
-29 -36 9 -17 10 -17 11 -1 0 19 16 23 22 5 3 -7 11 -5 26 7 21 19 21 19 2 37
-11 11 -20 25 -20 32 0 17 -24 38 -33 30z"/>
<path d="M2220 2590 c0 -13 11 -13 30 0 12 8 11 10 -7 10 -13 0 -23 -4 -23
-10z"/>
<path d="M2974 2565 c2 -14 9 -31 16 -38 10 -9 11 -9 6 1 -4 6 -2 12 4 12 18
0 7 44 -12 48 -13 2 -16 -3 -14 -23z"/>
<path d="M3757 2567 c-4 -11 4 -16 31 -20 20 -2 39 -3 41 -1 8 7 -7 15 -30 17
-13 0 -27 5 -30 10 -3 5 -9 2 -12 -6z"/>
<path d="M611 2554 c0 -11 3 -14 6 -6 3 7 2 16 -1 19 -3 4 -6 -2 -5 -13z"/>
<path d="M3390 2560 c0 -5 9 -10 21 -10 11 0 17 5 14 10 -3 6 -13 10 -21 10
-8 0 -14 -4 -14 -10z"/>
<path d="M3987 2545 c8 -38 63 -47 63 -10 0 8 -5 17 -12 21 -8 5 -9 2 -5 -9 4
-11 1 -17 -7 -17 -8 0 -16 9 -19 20 -7 29 -25 25 -20 -5z"/>
<path d="M1071 2543 c-8 -9 -10 -18 -4 -22 5 -3 9 -19 9 -36 -1 -16 3 -31 8
-32 5 -1 12 -6 16 -12 9 -15 70 -32 70 -20 0 5 -5 9 -11 9 -5 0 -7 5 -3 11 5
8 1 8 -13 0 -11 -6 -23 -7 -27 -4 -10 10 -7 43 4 43 6 0 10 5 10 10 0 6 -7 10
-15 10 -8 0 -15 5 -15 11 0 5 4 8 9 5 5 -4 7 3 4 13 -7 26 -25 32 -42 14z"/>
<path d="M2213 2543 c9 -9 20 -13 24 -9 4 4 1 11 -7 16 -25 16 -35 11 -17 -7z"/>
<path d="M2084 2525 c3 -8 1 -25 -4 -37 -5 -13 -9 -17 -9 -10 -1 6 -8 12 -16
12 -8 0 -15 3 -15 8 0 4 -9 13 -20 19 -16 11 -18 10 -14 -1 3 -8 12 -17 21
-20 8 -4 13 -12 10 -20 -3 -8 0 -21 6 -29 15 -18 55 -28 63 -16 3 5 1 9 -3 9
-13 0 -14 42 -1 57 12 15 4 43 -13 43 -6 0 -9 -7 -5 -15z"/>
<path d="M2380 2520 c0 -6 5 -8 10 -5 6 3 10 1 10 -4 0 -6 -6 -11 -12 -11 -8
-1 -6 -6 5 -14 21 -16 22 -30 2 -22 -9 3 -15 0 -15 -9 0 -8 -6 -14 -12 -12 -8
1 -14 -10 -16 -27 -2 -18 0 -26 7 -21 6 3 11 13 11 20 0 9 6 12 15 9 8 -4 15
-13 15 -21 0 -10 6 -13 16 -9 15 6 61 -18 76 -39 5 -6 8 -6 8 2 0 6 -5 15 -11
19 -8 4 -7 9 2 16 9 6 5 6 -13 2 -21 -4 -29 -1 -38 16 -11 20 -10 21 11 10 19
-11 21 -10 16 4 -6 14 -3 16 14 11 15 -5 19 -4 15 4 -4 6 -16 11 -26 11 -13 0
-18 6 -15 18 4 23 -11 49 -22 39 -4 -5 -1 -12 7 -17 13 -8 12 -10 -2 -10 -10
0 -19 5 -19 10 -1 6 -2 16 -3 22 -1 16 -36 23 -36 8z"/>
<path d="M3676 2505 c10 -15 12 -25 5 -25 -6 0 -11 -4 -11 -10 0 -14 33 -13
48 2 8 8 16 6 29 -8 10 -11 15 -15 11 -9 -4 6 -2 17 4 23 9 9 8 12 -5 12 -9 0
-32 9 -52 20 -46 26 -49 25 -29 -5z"/>
<path d="M2563 2512 c3 -9 -40 -51 -47 -46 -3 2 -4 1 -1 -3 3 -4 11 -8 18 -9
7 -1 19 -5 28 -9 13 -5 16 -1 13 22 -1 15 2 30 7 34 7 4 4 9 -5 12 -9 4 -15 3
-13 -1z"/>
<path d="M2880 2500 c0 -5 7 -10 15 -10 8 0 15 5 15 10 0 6 -7 10 -15 10 -8 0
-15 -4 -15 -10z"/>
<path d="M3217 2487 c-3 -7 3 -13 14 -13 22 0 25 12 5 19 -8 3 -16 0 -19 -6z"/>
<path d="M3351 2484 c0 -11 3 -14 6 -6 3 7 2 16 -1 19 -3 4 -6 -2 -5 -13z"/>
<path d="M1856 2458 c4 -26 2 -38 -6 -38 -7 0 -10 6 -7 14 3 8 0 13 -6 12 -20
-3 -37 -17 -36 -29 0 -9 2 -9 6 1 8 19 25 14 19 -6 -5 -14 -1 -18 16 -18 14 1
27 -8 34 -23 11 -20 9 -28 -8 -52 -22 -30 -16 -53 13 -46 15 4 17 0 13 -22 -3
-19 4 -35 26 -61 16 -19 30 -29 30 -22 0 6 -9 21 -20 32 -16 16 -18 24 -9 50
6 16 16 30 22 30 7 0 7 4 -1 12 -10 10 -15 10 -22 -2 -8 -11 -9 -9 -7 9 5 34
24 38 38 7 7 -14 17 -26 23 -27 6 -1 1 -4 -12 -7 -24 -7 -27 -28 -4 -26 6 1
12 -2 12 -7 0 -5 -4 -9 -10 -9 -5 0 -10 -9 -10 -21 0 -12 4 -17 11 -13 8 4 9
0 4 -15 -5 -17 -2 -21 15 -21 26 0 37 25 19 46 -10 13 -10 17 2 25 8 5 19 9
26 9 6 0 15 4 18 10 3 6 -1 7 -9 4 -9 -3 -16 -1 -16 5 0 6 5 11 10 11 16 0 12
24 -15 85 -14 31 -23 65 -20 75 3 10 -2 25 -10 34 -22 22 -23 21 -19 -16 3
-25 1 -29 -6 -16 -7 12 -19 15 -43 11 -17 -3 -34 -7 -37 -10 -2 -2 -10 11 -17
29 l-12 33 5 -37z m134 -149 c0 -14 -17 -10 -23 5 -4 10 -1 13 9 9 7 -3 14 -9
14 -14z m10 -119 c0 -5 -4 -10 -10 -10 -5 0 -10 5 -10 10 0 6 5 10 10 10 6 0
10 -4 10 -10z"/>
<path d="M1900 2485 c0 -5 5 -17 10 -25 5 -8 10 -10 10 -5 0 6 -5 17 -10 25
-5 8 -10 11 -10 5z"/>
<path d="M710 2465 c-1 -11 -2 -24 -1 -29 1 -5 -5 -4 -13 4 -9 7 -16 8 -16 2
0 -5 7 -15 15 -22 12 -10 16 -9 21 3 3 9 4 26 1 39 -4 20 -5 20 -7 3z"/>
<path d="M1875 2470 c3 -5 8 -10 11 -10 2 0 4 5 4 10 0 6 -5 10 -11 10 -5 0
-7 -4 -4 -10z"/>
<path d="M2250 2460 c0 -6 6 -10 13 -9 42 5 60 -12 47 -46 -8 -22 -8 -30 2
-36 10 -7 10 -12 -3 -24 -16 -17 -48 -11 -50 9 -1 6 -5 0 -9 -14 l-8 -25 -1
28 c-1 29 -20 38 -22 10 0 -12 -2 -13 -6 -5 -3 7 1 19 7 27 10 12 9 15 -3 15
-9 0 -17 -11 -20 -27 -3 -23 -4 -21 -6 10 -1 27 -5 37 -17 37 -12 0 -15 -6
-10 -24 5 -21 3 -23 -15 -19 -19 5 -20 4 -7 -18 7 -13 19 -31 26 -40 9 -11 10
-23 3 -40 -10 -24 -10 -24 -10 -1 -1 29 -34 62 -47 47 -6 -6 -9 -16 -6 -24 2
-7 -2 -17 -9 -22 -12 -8 -11 -12 4 -23 12 -9 14 -16 8 -21 -6 -3 -11 -1 -11 4
0 6 -7 11 -15 11 -8 0 -12 -6 -9 -14 3 -9 -3 -17 -15 -21 -26 -8 -27 -25 -2
-25 11 0 27 -10 35 -22 14 -19 14 -23 2 -30 -8 -5 -29 -7 -47 -6 -27 3 -33 -1
-40 -24 -4 -16 -3 -30 2 -34 5 -3 -1 -14 -13 -25 -15 -12 -17 -17 -7 -13 10 3
20 0 24 -5 3 -6 11 -8 17 -5 6 4 5 10 -3 15 -10 6 -8 9 9 9 12 0 22 5 22 10 0
6 5 10 10 10 6 0 10 -6 10 -14 0 -8 5 -18 10 -21 16 -10 50 5 50 22 0 9 6 13
15 9 18 -6 19 -1 5 24 -8 16 -6 21 12 31 13 7 26 16 29 22 8 11 44 -12 65 -41
16 -23 29 -106 15 -97 -6 3 -19 -4 -30 -16 -14 -15 -28 -20 -46 -17 -21 4 -25
2 -20 -13 7 -21 -29 -45 -48 -32 -18 13 -74 17 -62 5 6 -6 19 -12 30 -14 11
-1 22 -5 25 -8 3 -3 16 -11 30 -18 24 -11 23 -12 -9 -6 -28 5 -33 4 -28 -10 3
-8 1 -18 -5 -22 -7 -5 -8 -2 -3 6 5 9 4 11 -3 6 -7 -4 -12 -9 -12 -11 0 -10
76 -45 93 -43 11 2 22 -3 25 -11 3 -8 0 -11 -7 -7 -6 4 -11 0 -11 -9 0 -9 4
-14 9 -10 5 3 13 -4 16 -16 4 -11 9 -18 12 -15 4 3 12 1 20 -5 9 -8 13 -8 13
-1 0 6 6 9 14 6 9 -3 12 -12 9 -21 -4 -10 -2 -14 4 -10 6 4 17 -1 24 -10 12
-14 11 -15 -11 -8 -14 4 -34 14 -45 21 -23 17 -49 18 -39 3 5 -8 1 -8 -14 0
-28 15 -32 14 -25 -5 4 -12 1 -15 -13 -12 -23 4 -59 -26 -49 -41 3 -6 1 -11
-6 -11 -7 0 -9 8 -6 21 3 13 1 19 -6 16 -7 -2 -11 -12 -11 -21 2 -20 -5 -20
-35 0 -17 12 -20 19 -11 28 8 8 13 7 20 -4 15 -24 22 -5 9 24 -13 27 -37 30
-31 5 3 -11 1 -12 -10 -1 -9 9 -10 15 -2 20 18 12 23 50 7 63 -11 10 -18 9
-31 -5 -16 -16 -16 -18 2 -31 10 -7 16 -17 13 -22 -3 -4 -8 -24 -11 -43 -5
-34 -4 -36 34 -48 22 -6 59 -12 84 -12 41 0 44 -2 50 -31 5 -28 7 -29 22 -15
25 25 30 18 5 -8 l-22 -24 27 -21 c15 -11 31 -21 37 -21 6 0 2 7 -9 15 -18 15
-18 15 0 8 14 -4 17 -3 12 6 -5 7 -1 18 10 26 18 12 17 14 -6 34 -30 24 -10
28 26 5 30 -20 34 -17 27 19 -4 20 -8 25 -14 16 -6 -11 -9 -9 -15 4 -9 25 -1
30 29 16 21 -9 26 -18 23 -41 -3 -21 0 -26 9 -18 6 5 15 7 18 3 4 -3 8 5 8 18
1 17 3 19 6 7 2 -10 9 -18 15 -18 5 0 7 7 4 16 -4 12 -2 15 9 10 8 -3 16 -2
16 2 6 32 5 53 -3 58 -4 3 -6 9 -3 14 3 5 1 11 -4 15 -6 3 -8 12 -4 20 7 20
-2 19 -22 -1 -13 -14 -14 -19 -3 -25 7 -5 8 -9 2 -9 -5 0 -19 6 -30 14 -19 14
-18 15 5 36 16 13 31 18 40 14 19 -9 120 -9 154 0 30 7 30 31 0 47 -12 7 -23
18 -23 24 0 8 -10 10 -24 8 -17 -4 -27 1 -35 15 -9 17 -7 20 18 24 26 4 67
-13 56 -23 -2 -3 10 -5 28 -4 25 0 33 5 35 22 4 30 43 40 75 19 26 -18 59 -12
51 8 -3 7 3 19 12 27 16 12 17 12 12 -1 -4 -12 2 -16 23 -18 33 -3 39 13 8 21
-21 6 -22 32 -1 32 18 0 35 22 23 29 -13 8 -51 -11 -51 -25 0 -6 -4 -7 -10 -4
-14 9 -12 25 2 23 7 -2 14 7 16 20 2 15 9 22 18 18 7 -3 18 3 24 12 8 13 13
14 17 4 4 -10 8 -10 19 -1 8 6 11 15 8 20 -3 5 2 6 10 3 9 -3 17 -1 17 5 3 28
3 38 -4 71 l-8 35 -15 -28 c-12 -22 -18 -26 -29 -17 -9 8 -15 8 -20 0 -6 -10
13 -14 45 -11 13 2 13 1 0 -8 -8 -6 -27 -11 -42 -11 -16 0 -28 -4 -28 -10 0
-5 -7 -10 -16 -10 -9 0 -18 -9 -21 -20 -3 -11 -10 -20 -15 -20 -5 0 -18 -10
-29 -22 -10 -13 -18 -17 -19 -10 0 6 -9 12 -19 12 -17 0 -18 3 -8 30 10 25 8
32 -11 53 -12 13 -22 29 -22 35 0 7 -7 12 -16 12 -11 0 -14 -5 -10 -16 3 -9 6
-18 6 -20 0 -2 6 -4 14 -4 16 0 27 -35 19 -56 -3 -8 -13 -14 -22 -13 -33 3
-52 -1 -46 -10 3 -5 1 -12 -5 -16 -5 -3 -10 3 -10 13 0 20 -23 36 -34 25 -12
-12 -6 -25 8 -20 10 4 13 1 9 -8 -6 -17 -41 -3 -50 21 -10 26 -69 47 -101 36
-37 -13 -69 2 -51 24 6 8 18 14 25 14 8 0 14 3 14 6 0 12 -51 54 -64 54 -19 0
-29 28 -27 70 3 43 16 59 34 41 7 -8 7 -11 1 -8 -15 8 -22 -20 -14 -53 6 -25
37 -37 33 -12 -4 17 37 15 58 -4 16 -14 18 -13 24 15 4 17 10 31 13 31 4 0 24
-16 45 -36 31 -30 37 -32 37 -16 0 11 -7 22 -15 26 -20 7 -19 25 2 48 20 22
10 36 -13 18 -10 -9 -18 -10 -22 -4 -4 6 -22 16 -40 23 -21 9 -31 19 -28 28 3
8 1 11 -4 8 -6 -3 -10 -1 -10 5 0 7 -7 9 -15 6 -9 -3 -18 1 -21 9 -4 8 -10 12
-15 9 -6 -3 -7 5 -4 19 5 19 1 29 -16 41 -26 18 -59 21 -59 6z m130 -109 c0
-5 3 -17 7 -26 5 -16 4 -16 -15 1 -12 9 -19 21 -16 26 7 11 24 10 24 -1z
m-164 -58 c-10 -10 -19 5 -10 18 6 11 8 11 12 0 2 -7 1 -15 -2 -18z m-76 -33
c0 -5 -5 -10 -11 -10 -5 0 -7 5 -4 10 3 6 8 10 11 10 2 0 4 -4 4 -10z m60 -47
c0 9 5 17 10 17 12 0 9 -22 -4 -32 -14 -10 -36 2 -36 21 1 14 3 13 15 -3 13
-17 15 -18 15 -3z m50 -13 c0 -5 -2 -10 -4 -10 -3 0 -8 5 -11 10 -3 6 -1 10 4
10 6 0 11 -4 11 -10z m-205 -130 c3 -5 1 -10 -4 -10 -6 0 -11 5 -11 10 0 6 2
10 4 10 3 0 8 -4 11 -10z m523 -142 c-2 -5 -8 -9 -13 -9 -5 0 -11 4 -13 9 -1
5 4 9 13 9 9 0 14 -4 13 -9z m-378 -108 c0 -5 -4 -10 -10 -10 -5 0 -10 5 -10
10 0 6 5 10 10 10 6 0 10 -4 10 -10z m-150 -40 c0 -5 -5 -10 -11 -10 -5 0 -7
5 -4 10 3 6 8 10 11 10 2 0 4 -4 4 -10z"/>
<path d="M986 2451 c-9 -15 20 -45 38 -38 9 4 16 11 16 17 0 6 -4 9 -9 6 -13
-8 -42 4 -35 15 3 5 3 9 0 9 -3 0 -7 -4 -10 -9z"/>
<path d="M1770 2430 c0 -5 5 -10 10 -10 6 0 10 5 10 10 0 6 -4 10 -10 10 -5 0
-10 -4 -10 -10z"/>
<path d="M876 2422 c-3 -6 -1 -14 5 -17 14 -9 20 -2 10 14 -6 8 -11 9 -15 3z"/>
<path d="M1335 2410 c3 -5 8 -10 11 -10 2 0 4 5 4 10 0 6 -5 10 -11 10 -5 0
-7 -4 -4 -10z"/>
<path d="M855 2380 c3 -5 8 -10 11 -10 2 0 4 5 4 10 0 6 -5 10 -11 10 -5 0 -7
-4 -4 -10z"/>
<path d="M1735 2381 c-3 -5 -1 -12 5 -16 5 -3 10 1 10 9 0 18 -6 21 -15 7z"/>
<path d="M2526 2377 c3 -10 9 -15 12 -12 3 3 0 11 -7 18 -10 9 -11 8 -5 -6z"/>
<path d="M2660 2376 c0 -29 55 -45 55 -16 1 8 -4 18 -10 22 -17 13 -45 9 -45
-6z"/>
<path d="M3187 2373 c-13 -15 -13 -20 -1 -30 18 -18 19 -17 20 17 1 35 2 35
-19 13z"/>
<path d="M1650 2370 c-8 -5 -11 -12 -8 -16 10 -9 38 3 38 16 0 12 -10 13 -30
0z"/>
<path d="M1833 2373 c9 -2 15 -8 12 -13 -3 -5 -2 -11 3 -14 4 -2 9 4 9 15 1
14 -4 19 -20 18 -17 -1 -18 -2 -4 -6z"/>
<path d="M2571 2364 c0 -11 3 -14 6 -6 3 7 2 16 -1 19 -3 4 -6 -2 -5 -13z"/>
<path d="M940 2352 c0 -12 -4 -22 -10 -22 -5 0 -10 -4 -10 -10 0 -5 4 -10 10
-10 11 0 25 48 16 57 -3 4 -6 -3 -6 -15z"/>
<path d="M2950 2360 c8 -5 20 -10 25 -10 6 0 3 5 -5 10 -8 5 -19 10 -25 10 -5
0 -3 -5 5 -10z"/>
<path d="M1263 2344 c-3 -8 -1 -26 5 -38 7 -16 7 -27 0 -34 -11 -11 0 -102 13
-102 5 0 9 18 9 40 0 31 3 38 15 34 9 -4 15 0 15 8 0 8 18 22 40 31 22 8 40
21 40 28 0 8 -7 6 -19 -5 -16 -15 -23 -16 -42 -6 -19 11 -21 10 -16 -4 4 -9 2
-16 -3 -16 -6 0 -10 10 -10 23 -1 22 -21 57 -34 57 -4 0 -9 -7 -13 -16z"/>
<path d="M3036 2332 c10 -17 22 -28 26 -26 11 7 -13 46 -32 52 -8 3 -7 -5 6
-26z"/>
<path d="M1575 2340 c3 -5 8 -10 11 -10 2 0 4 5 4 10 0 6 -5 10 -11 10 -5 0
-7 -4 -4 -10z"/>
<path d="M3726 2341 c-8 -12 4 -41 16 -41 6 0 5 6 -2 15 -6 8 -9 19 -5 25 3 5
4 10 1 10 -3 0 -7 -4 -10 -9z"/>
<path d="M965 2307 c5 -24 4 -28 -4 -17 -9 13 -11 13 -11 -2 0 -9 5 -20 10
-23 6 -3 10 -12 10 -18 0 -7 -12 1 -25 16 -23 26 -25 26 -25 7 0 -11 -7 -23
-15 -26 -17 -7 -11 -56 11 -91 8 -12 14 -29 14 -37 0 -7 7 -16 15 -20 10 -4
15 1 15 14 0 18 10 25 33 21 4 0 7 4 7 10 0 5 4 7 10 4 7 -4 7 3 0 20 -13 33
-13 48 -1 40 6 -3 6 7 1 27 -12 39 -4 50 9 14 6 -14 15 -26 21 -26 19 0 -35
103 -59 111 -21 8 -22 7 -16 -24z m-35 -81 c0 -3 -4 -8 -10 -11 -5 -3 -10 -1
-10 4 0 6 5 11 10 11 6 0 10 -2 10 -4z"/>
<path d="M2560 2325 c6 -8 9 -19 5 -25 -3 -5 -2 -10 4 -10 18 0 21 18 5 34
-19 20 -31 21 -14 1z"/>
<path d="M1780 2320 c0 -5 5 -10 10 -10 6 0 10 5 10 10 0 6 -4 10 -10 10 -5 0
-10 -4 -10 -10z"/>
<path d="M2890 2320 c0 -5 10 -10 23 -10 18 0 19 2 7 10 -19 13 -30 13 -30 0z"/>
<path d="M1810 2300 c0 -5 5 -10 11 -10 5 0 7 5 4 10 -3 6 -8 10 -11 10 -2 0
-4 -4 -4 -10z"/>
<path d="M3523 2303 c-7 -2 -13 -18 -13 -34 0 -30 14 -37 40 -18 12 9 12 10
-4 5 -16 -5 -18 -2 -14 24 3 16 4 30 4 29 -1 0 -7 -3 -13 -6z"/>
<path d="M840 2278 c0 -29 39 -112 40 -85 0 10 -7 32 -16 49 -9 18 -11 27 -4
23 8 -5 11 -1 8 10 -5 29 -28 30 -28 3z"/>
<path d="M2499 2279 c-10 -6 -7 -9 14 -9 29 0 35 5 14 13 -8 3 -20 1 -28 -4z"/>
<path d="M1802 2230 c-20 -32 -14 -47 18 -52 17 -3 33 -1 36 4 3 4 15 8 27 9
12 0 16 3 10 6 -7 2 -13 9 -13 15 0 14 -30 41 -37 34 -4 -3 -1 -12 5 -18 19
-19 14 -25 -19 -26 -29 -1 -30 0 -13 13 13 9 16 17 9 24 -7 7 -14 4 -23 -9z"/>
<path d="M1357 2226 c-10 -8 -14 -16 -10 -19 5 -3 14 3 21 14 14 22 13 23 -11
5z"/>
<path d="M1690 2230 c0 -5 5 -10 10 -10 6 0 10 5 10 10 0 6 -4 10 -10 10 -5 0
-10 -4 -10 -10z"/>
<path d="M2431 2224 c0 -11 3 -14 6 -6 3 7 2 16 -1 19 -3 4 -6 -2 -5 -13z"/>
<path d="M2555 2230 c4 -6 11 -8 16 -5 14 9 11 15 -7 15 -8 0 -12 -5 -9 -10z"/>
<path d="M2822 2213 c2 -10 12 -19 23 -20 11 -2 14 0 8 3 -7 3 -13 12 -13 20
0 8 -5 14 -11 14 -6 0 -9 -8 -7 -17z"/>
<path d="M1155 2203 c-37 -4 -54 -16 -55 -37 0 -4 7 -5 16 -2 8 3 25 -1 38 -9
22 -15 24 -14 29 5 5 18 7 19 33 5 15 -7 31 -12 36 -9 11 7 10 41 -1 48 -5 4
-7 -4 -5 -16 l5 -23 -12 23 c-7 12 -19 21 -28 20 -9 -1 -34 -3 -56 -5z"/>
<path d="M2887 2203 c-3 -5 2 -25 11 -44 19 -38 51 -48 88 -28 37 19 28 28
-17 17 -30 -8 -43 -8 -52 1 -9 10 -7 16 8 28 12 9 14 13 5 11 -8 -3 -20 2 -26
10 -6 9 -13 11 -17 5z"/>
<path d="M3000 2206 c0 -2 7 -6 15 -10 8 -3 15 -1 15 4 0 6 -7 10 -15 10 -8 0
-15 -2 -15 -4z"/>
<path d="M4595 2200 c-3 -5 -2 -10 4 -10 5 0 13 5 16 10 3 6 2 10 -4 10 -5 0
-13 -4 -16 -10z"/>
<path d="M2342 2189 c2 -7 10 -15 17 -17 8 -3 12 1 9 9 -2 7 -10 15 -17 17 -8
3 -12 -1 -9 -9z"/>
<path d="M2547 2189 c7 -7 15 -10 18 -7 3 3 -2 9 -12 12 -14 6 -15 5 -6 -5z"/>
<path d="M3850 2190 c0 -12 28 -25 36 -17 3 3 -4 10 -15 17 -15 7 -21 7 -21 0z"/>
<path d="M1050 2175 c1 -6 7 -21 15 -35 9 -18 10 -29 3 -38 -8 -9 -7 -11 5 -6
9 3 15 13 14 23 -3 18 -37 71 -37 56z"/>
<path d="M4309 2153 c-16 -41 -18 -57 -6 -70 12 -16 27 -17 27 -2 0 5 -5 7
-12 3 -8 -5 -9 5 -5 36 3 24 11 47 19 51 10 7 10 9 0 9 -7 0 -17 -12 -23 -27z"/>
<path d="M2920 2160 c0 -6 7 -10 15 -10 8 0 15 2 15 4 0 2 -7 6 -15 10 -8 3
-15 1 -15 -4z"/>
<path d="M1261 2146 c-9 -10 -8 -16 4 -26 8 -7 12 -16 9 -21 -3 -5 0 -9 6 -9
6 0 13 7 16 15 8 20 21 19 28 -2 3 -11 4 -7 3 7 -1 17 -8 25 -20 24 -9 -1 -17
4 -17 12 0 18 -14 18 -29 0z"/>
<path d="M1655 2150 c3 -5 12 -7 20 -3 21 7 19 13 -6 13 -11 0 -18 -4 -14 -10z"/>
<path d="M1834 2149 c15 -9 16 -13 5 -20 -11 -7 -10 -9 4 -9 25 0 18 34 -8 38
-19 3 -19 2 -1 -9z"/>
<path d="M1910 2155 c0 -15 18 -40 24 -34 3 3 -1 14 -9 25 -8 10 -14 15 -15 9z"/>
<path d="M2040 2150 c0 -5 9 -10 21 -10 11 0 17 5 14 10 -3 6 -13 10 -21 10
-8 0 -14 -4 -14 -10z"/>
<path d="M1365 2140 c-3 -5 1 -10 9 -10 9 0 16 5 16 10 0 6 -4 10 -9 10 -6 0
-13 -4 -16 -10z"/>
<path d="M2495 2139 c-4 -6 -5 -12 -2 -15 2 -3 7 2 10 11 7 17 1 20 -8 4z"/>
<path d="M2521 2128 c-1 -15 -5 -30 -11 -33 -5 -3 -10 -11 -10 -17 0 -6 7 -5
17 3 9 8 18 13 20 12 6 -6 5 -1 -10 47 -3 8 -6 3 -6 -12z"/>
<path d="M1673 2119 c9 -5 17 -17 17 -24 0 -17 16 -20 25 -6 6 10 -32 41 -50
41 -5 0 -2 -5 8 -11z"/>
<path d="M1191 2104 c0 -11 3 -14 6 -6 3 7 2 16 -1 19 -3 4 -6 -2 -5 -13z"/>
<path d="M1026 2102 c-3 -5 1 -9 9 -9 8 0 12 4 9 9 -3 4 -7 8 -9 8 -2 0 -6 -4
-9 -8z"/>
<path d="M2580 2102 c0 -5 7 -15 15 -22 8 -7 15 -8 15 -2 0 5 -7 15 -15 22 -8
7 -15 8 -15 2z"/>
<path d="M3063 2094 c-7 -7 -13 -18 -13 -23 0 -6 -7 -8 -16 -4 -8 3 -13 12
-10 19 6 16 4 17 -18 8 -21 -8 -4 -42 27 -53 26 -10 57 12 57 40 0 24 -12 30
-27 13z"/>
<path d="M1401 2087 c-1 -15 -4 -16 -22 -7 -11 6 -25 10 -31 8 -6 -2 3 -10 21
-17 35 -15 45 -11 38 16 -4 17 -5 17 -6 0z"/>
<path d="M1427 2080 c-3 -11 -1 -20 4 -20 5 0 9 9 9 20 0 11 -2 20 -4 20 -2 0
-6 -9 -9 -20z"/>
<path d="M1457 2083 c-4 -3 -7 -13 -7 -22 1 -13 3 -13 11 2 11 19 8 33 -4 20z"/>
<path d="M3136 2064 c-4 -9 -4 -19 -1 -22 2 -3 7 3 11 12 4 9 4 19 1 22 -2 3
-7 -3 -11 -12z"/>
<path d="M940 2063 c0 -6 9 -21 21 -34 l20 -24 -17 30 c-24 39 -24 40 -24 28z"/>
<path d="M1025 2059 c-4 -6 -5 -12 -2 -15 2 -3 7 2 10 11 7 17 1 20 -8 4z"/>
<path d="M1281 2054 c0 -11 3 -14 6 -6 3 7 2 16 -1 19 -3 4 -6 -2 -5 -13z"/>
<path d="M3187 2050 c-10 -13 -10 -13 6 -1 14 11 17 11 17 -2 0 -8 -7 -20 -15
-27 -12 -10 -13 -15 -3 -21 6 -4 16 -5 21 -2 5 3 3 9 -4 14 -10 6 -9 10 5 15
10 4 27 2 37 -4 23 -15 29 -15 29 -2 0 6 -6 10 -14 10 -7 0 -19 7 -26 15 -11
13 -10 14 4 9 9 -3 16 -1 16 5 0 15 -60 8 -73 -9z"/>
<path d="M3547 2052 c11 -30 63 -52 63 -26 0 8 5 14 10 14 6 0 10 8 10 18 0
14 -2 14 -9 3 -10 -15 -51 -23 -51 -10 0 4 -7 9 -14 12 -11 4 -13 1 -9 -11z"/>
<path d="M2843 2041 c-13 -11 -18 -23 -13 -30 5 -10 9 -9 13 3 4 9 18 16 33
16 22 0 25 2 14 15 -16 19 -20 19 -47 -4z"/>
<path d="M3275 2050 c3 -5 8 -10 11 -10 2 0 4 5 4 10 0 6 -5 10 -11 10 -5 0
-7 -4 -4 -10z"/>
<path d="M2245 2031 c-3 -5 -1 -12 5 -16 5 -3 10 1 10 9 0 18 -6 21 -15 7z"/>
<path d="M1355 2010 c-6 -10 14 -51 32 -63 16 -10 27 -67 15 -79 -6 -6 -8 -1
-5 16 3 15 1 26 -6 26 -6 0 -11 -8 -11 -17 0 -14 -2 -15 -9 -4 -7 11 -9 11
-14 0 -3 -8 -6 -9 -6 -2 -1 6 -9 9 -20 6 -12 -3 -26 5 -40 23 -24 30 -29 20
-6 -12 8 -12 28 -24 46 -28 56 -11 159 -99 151 -128 -1 -5 3 -8 8 -8 17 0 7
33 -17 56 -16 14 -20 27 -16 45 10 39 22 49 55 42 28 -6 29 -5 26 28 -2 23
-10 37 -27 45 -13 7 -26 17 -30 22 -3 5 -24 17 -45 26 -39 16 -39 16 -21 -4
10 -11 15 -23 12 -26 -3 -4 -17 6 -30 20 -27 28 -33 31 -42 16z m95 -171 c0
-14 -17 -10 -23 5 -4 10 -1 13 9 9 7 -3 14 -9 14 -14z"/>
<path d="M2187 2006 c-3 -8 -2 -18 4 -22 16 -9 22 2 11 21 -8 15 -10 16 -15 1z"/>
<path d="M2895 2010 c-3 -5 -1 -10 4 -10 6 0 11 5 11 10 0 6 -2 10 -4 10 -3 0
-8 -4 -11 -10z"/>
<path d="M2974 2005 c4 -10 -1 -15 -14 -15 -11 0 -20 5 -20 11 0 5 -5 7 -11 4
-5 -4 -8 -12 -6 -18 4 -13 87 -17 87 -5 0 5 -4 8 -10 8 -5 0 -10 7 -10 15 0 8
-5 15 -11 15 -6 0 -9 -7 -5 -15z"/>
<path d="M3285 2000 c-3 -5 -1 -10 4 -10 6 0 11 5 11 10 0 6 -2 10 -4 10 -3 0
-8 -4 -11 -10z"/>
<path d="M3640 1990 c0 -16 7 -20 31 -20 18 0 28 4 24 10 -4 6 -11 8 -16 5 -5
-4 -12 1 -15 9 -9 23 -24 20 -24 -4z"/>
<path d="M2007 1978 c-4 -12 -1 -28 5 -35 7 -9 7 -13 0 -13 -6 0 -14 5 -17 10
-10 16 -35 12 -35 -6 0 -8 4 -12 10 -9 5 3 19 1 30 -5 15 -8 20 -8 20 1 0 6 6
9 14 6 11 -4 11 1 1 29 -15 44 -21 49 -28 22z"/>
<path d="M3590 1985 c0 -8 2 -15 4 -15 2 0 6 7 10 15 3 8 1 15 -4 15 -6 0 -10
-7 -10 -15z"/>
<path d="M1668 1968 c3 -12 7 -17 10 -10 2 6 10 12 17 12 8 0 17 5 20 10 4 6
-6 10 -23 10 -26 0 -29 -3 -24 -22z"/>
<path d="M1968 1983 c7 -3 16 -2 19 1 4 3 -2 6 -13 5 -11 0 -14 -3 -6 -6z"/>
<path d="M3440 1976 c0 -2 7 -7 16 -10 8 -3 12 -2 9 4 -6 10 -25 14 -25 6z"/>
<path d="M3163 1950 c-10 -11 -23 -20 -30 -20 -7 0 -15 -12 -19 -27 -10 -48
-13 -53 -29 -53 -9 0 -23 16 -32 37 -14 34 -16 36 -28 19 -7 -10 -24 -17 -37
-16 -37 3 -38 2 -7 -31 22 -24 27 -36 22 -59 -4 -25 -1 -31 21 -42 21 -9 26
-17 22 -34 -4 -13 -1 -26 5 -29 6 -4 8 -13 5 -20 -3 -8 2 -11 15 -8 22 6 24
14 8 30 -8 8 -5 13 11 18 18 6 20 9 9 16 -11 7 -11 9 2 9 22 0 34 31 17 42 -7
4 -8 8 -3 8 6 0 16 -4 24 -9 12 -8 12 -12 -2 -26 -14 -13 -15 -20 -5 -38 8
-15 13 -18 16 -8 2 7 -1 17 -7 21 -9 5 -8 10 4 20 8 7 15 19 15 27 0 8 6 13
13 10 6 -2 11 -12 9 -22 -2 -12 1 -16 11 -12 8 3 20 0 26 -6 9 -9 14 -8 22 3
9 13 10 12 5 -2 -3 -12 0 -18 9 -18 8 0 15 6 15 14 0 14 29 30 38 21 10 -9
-31 -45 -52 -45 -16 0 -18 -3 -7 -9 7 -5 22 -6 33 -3 11 3 23 -1 28 -7 5 -9
17 -8 47 5 39 17 39 18 39 71 0 38 -4 53 -13 53 -17 0 -63 45 -63 61 0 7 11 2
24 -10 18 -17 32 -22 50 -17 25 6 37 36 16 36 -5 0 -10 7 -10 15 0 8 9 15 21
15 11 0 18 4 15 9 -11 17 -82 6 -106 -17 -24 -22 -70 -30 -70 -12 0 6 -6 10
-12 10 -7 -1 -2 -9 10 -20 43 -35 18 -41 -30 -8 -53 37 -55 40 -32 62 14 15
14 16 0 16 -9 0 -24 -9 -33 -20z m128 -109 c6 10 9 8 9 -8 0 -14 -6 -23 -15
-23 -9 0 -15 9 -14 23 0 12 3 16 6 8 5 -11 7 -11 14 0z m-71 -62 c0 -6 -4 -7
-10 -4 -5 3 -10 11 -10 16 0 6 5 7 10 4 6 -3 10 -11 10 -16z m-110 -14 c0 -7
-30 -13 -34 -7 -3 4 4 9 15 9 10 1 19 0 19 -2z"/>
<path d="M1580 1950 c0 -5 5 -10 11 -10 5 0 7 5 4 10 -3 6 -8 10 -11 10 -2 0
-4 -4 -4 -10z"/>
<path d="M3485 1950 c3 -5 8 -10 11 -10 2 0 4 5 4 10 0 6 -5 10 -11 10 -5 0
-7 -4 -4 -10z"/>
<path d="M2825 1940 c4 -6 11 -8 16 -5 14 9 11 15 -7 15 -8 0 -12 -5 -9 -10z"/>
<path d="M2955 1930 c3 -5 8 -10 11 -10 2 0 4 5 4 10 0 6 -5 10 -11 10 -5 0
-7 -4 -4 -10z"/>
<path d="M1940 1906 c0 -8 5 -18 10 -21 6 -3 10 1 10 9 0 8 -4 18 -10 21 -5 3
-10 -1 -10 -9z"/>
<path d="M2087 1871 c-4 -17 -3 -21 5 -13 5 5 8 16 6 23 -3 8 -7 3 -11 -10z"/>
<path d="M1832 1871 l-24 -6 20 -19 c19 -17 22 -17 44 -2 l22 16 -22 0 c-13 0
-20 4 -17 10 3 6 5 10 3 9 -2 -1 -14 -4 -26 -8z"/>
<path d="M1931 1857 c-28 -14 -29 -31 -3 -35 22 -4 44 19 34 35 -6 9 -13 9
-31 0z m16 -13 c-3 -3 -12 -4 -19 -1 -8 3 -5 6 6 6 11 1 17 -2 13 -5z"/>
<path d="M1755 1849 c-12 -32 1 -63 30 -71 16 -4 30 -6 31 -5 1 1 -6 20 -16
42 -11 22 -20 36 -20 30 0 -5 -4 -3 -10 5 -8 13 -10 13 -15 -1z"/>
<path d="M1725 1821 c-3 -5 -1 -12 5 -16 5 -3 10 1 10 9 0 18 -6 21 -15 7z"/>
<path d="M1135 1800 c-3 -5 1 -10 10 -10 9 0 13 5 10 10 -3 6 -8 10 -10 10 -2
0 -7 -4 -10 -10z"/>
<path d="M2070 1800 c0 -5 5 -10 11 -10 5 0 7 5 4 10 -3 6 -8 10 -11 10 -2 0
-4 -4 -4 -10z"/>
<path d="M947 1788 c-5 -17 12 -68 24 -68 12 0 11 27 -1 35 -6 4 -8 15 -5 26
7 21 -11 27 -18 7z"/>
<path d="M4228 1783 c-10 -3 -18 -9 -18 -14 0 -6 -4 -7 -10 -4 -5 3 -10 2 -10
-3 0 -5 -16 -17 -35 -28 -19 -10 -35 -22 -35 -27 0 -4 -4 -6 -9 -3 -4 3 -13
-6 -19 -19 -7 -14 -9 -25 -6 -25 7 0 68 43 75 54 4 4 9 2 12 -5 5 -12 7 -11
16 1 5 8 8 17 6 20 -2 3 5 7 16 7 22 2 24 -8 7 -25 -6 -6 -9 -15 -5 -19 4 -3
14 2 23 13 15 18 15 18 9 -9 -5 -26 -4 -27 16 -17 19 11 20 10 14 -9 -10 -34
12 -24 24 10 14 39 14 42 0 34 -12 -8 -38 23 -39 47 0 20 -9 26 -32 21z"/>
<path d="M2425 1740 c3 -5 15 -10 26 -10 11 0 17 5 14 10 -3 6 -15 10 -26 10
-11 0 -17 -4 -14 -10z"/>
<path d="M2545 1735 c-17 -8 -23 -14 -14 -14 11 -1 20 -16 27 -43 12 -48 9
-57 -13 -38 -18 15 -47 -3 -39 -25 3 -8 -4 -16 -17 -20 -14 -5 -25 -3 -27 4
-7 20 -30 12 -25 -9 7 -25 44 -27 78 -4 24 16 49 15 89 -1 14 -6 17 -5 12 3
-5 8 0 12 13 12 11 0 23 5 26 10 3 6 -1 10 -9 10 -10 0 -16 9 -16 23 0 13 -5
28 -11 34 -8 8 -7 19 4 42 l15 31 -31 0 c-18 -1 -45 -7 -62 -15z"/>
<path d="M985 1720 c-10 -16 19 -50 34 -41 11 7 9 13 -7 29 -12 12 -24 17 -27
12z"/>
<path d="M2490 1694 c0 -16 -5 -24 -14 -22 -8 2 -16 -1 -18 -7 -2 -5 11 -11
28 -13 39 -4 52 27 23 52 -18 15 -19 14 -19 -10z"/>
<path d="M2696 1695 c-4 -12 3 -15 29 -15 26 0 33 3 29 15 -4 8 -16 15 -29 15
-13 0 -25 -7 -29 -15z"/>
<path d="M1985 1661 c-3 -5 -1 -12 5 -16 5 -3 10 1 10 9 0 18 -6 21 -15 7z"/>
<path d="M1320 1651 c0 -10 19 -25 25 -20 1 2 -3 10 -11 17 -8 7 -14 8 -14 3z"/>
<path d="M1420 1614 c0 -8 5 -12 10 -9 6 4 8 11 5 16 -9 14 -15 11 -15 -7z"/>
<path d="M2795 1620 c-3 -5 -1 -10 4 -10 6 0 11 5 11 10 0 6 -2 10 -4 10 -3 0
-8 -4 -11 -10z"/>
<path d="M1641 1604 c0 -11 3 -14 6 -6 3 7 2 16 -1 19 -3 4 -6 -2 -5 -13z"/>
<path d="M2760 1611 c0 -6 4 -13 10 -16 6 -3 7 1 4 9 -7 18 -14 21 -14 7z"/>
<path d="M2915 1610 c-4 -6 -21 -8 -43 -4 -33 6 -36 5 -24 -9 10 -12 11 -24 2
-56 -12 -45 -29 -53 -38 -19 l-5 22 -9 -24 c-7 -18 -11 -21 -21 -11 -9 9 -9
14 2 20 10 6 5 11 -17 16 -34 7 -52 1 -52 -18 0 -7 -19 -20 -42 -30 -32 -14
-38 -21 -27 -28 9 -7 1 -8 -27 -5 -40 4 -42 3 -53 -34 -15 -51 -13 -62 4 -22
10 22 19 31 27 26 9 -6 9 -9 0 -12 -14 -4 -16 -32 -2 -32 9 0 14 17 13 48 -1
14 7 15 27 2 9 -6 19 -5 29 3 11 9 15 9 18 0 6 -16 43 -17 43 -2 0 6 -4 19
-10 29 -9 18 5 31 35 34 17 2 43 -26 38 -40 -3 -9 2 -14 16 -14 25 0 27 -8 6
-24 -10 -8 -12 -15 -5 -26 9 -13 13 -12 28 6 18 23 88 39 106 25 6 -5 24 -11
40 -15 25 -6 28 -5 18 7 -7 8 -8 17 -4 22 4 4 -2 5 -13 2 -11 -4 -31 1 -45 9
l-25 15 34 -5 33 -6 -23 18 c-15 13 -20 25 -15 37 3 10 9 15 13 12 3 -4 12 1
19 11 11 16 13 15 23 -10 6 -16 17 -28 25 -28 24 0 39 -26 26 -49 -6 -12 -7
-21 -2 -21 8 0 25 28 35 60 3 8 6 0 6 -17 1 -34 21 -48 21 -15 0 9 7 26 15 36
19 25 20 70 3 60 -7 -4 -3 4 10 18 27 30 17 43 -28 33 -32 -7 -70 -52 -63 -72
3 -7 -2 -13 -11 -13 -9 0 -16 8 -16 20 0 11 4 20 8 20 10 0 10 46 0 55 -10 10
-68 -12 -85 -32 -13 -17 -14 -16 -10 10 4 29 2 33 -8 17z m-35 -80 c0 -5 -4
-10 -10 -10 -5 0 -10 5 -10 10 0 6 5 10 10 10 6 0 10 -4 10 -10z m30 -20 c0
-5 -2 -10 -4 -10 -3 0 -8 5 -11 10 -3 6 -1 10 4 10 6 0 11 -4 11 -10z m-45 -9
c3 -5 1 -12 -5 -16 -5 -3 -10 1 -10 9 0 18 6 21 15 7z"/>
<path d="M1824 1585 c1 -26 10 -32 22 -14 3 6 16 9 28 7 22 -5 53 18 41 30 -3
3 -9 1 -14 -6 -5 -9 -16 -9 -41 -2 -19 6 -36 10 -36 10 -1 0 -1 -11 0 -25z"/>
<path d="M1130 1570 c21 -30 40 -39 40 -19 0 5 -4 7 -10 4 -5 -3 -15 5 -22 19
-6 14 -15 26 -20 26 -5 0 0 -13 12 -30z"/>
<path d="M1040 1571 c0 -6 4 -13 10 -16 6 -3 7 1 4 9 -7 18 -14 21 -14 7z"/>
<path d="M1647 1573 c-4 -6 -5 -18 -1 -26 3 -9 -3 -17 -18 -22 l-23 -8 24 -4
c27 -5 63 23 45 35 -6 4 -13 14 -16 22 -3 9 -7 10 -11 3z"/>
<path d="M2535 1571 c3 -5 -3 -12 -12 -16 -19 -6 -58 -53 -51 -61 4 -4 30 19
56 51 7 8 24 15 37 15 14 0 25 5 25 10 0 6 -14 10 -31 10 -16 0 -28 -4 -24 -9z"/>
<path d="M3146 1565 c-3 -8 -1 -15 4 -15 6 0 10 7 10 15 0 8 -2 15 -4 15 -2 0
-6 -7 -10 -15z"/>
<path d="M3294 1568 c-3 -4 2 -8 10 -8 8 0 17 4 20 8 3 5 -2 9 -10 9 -8 0 -17
-4 -20 -9z"/>
<path d="M1185 1560 c-3 -5 1 -10 10 -10 9 0 13 5 10 10 -3 6 -8 10 -10 10 -2
0 -7 -4 -10 -10z"/>
<path d="M1410 1530 c8 -5 15 -15 15 -21 0 -7 6 -14 13 -16 6 -3 12 0 12 5 0
14 -29 42 -43 42 -7 0 -6 -4 3 -10z"/>
<path d="M2405 1530 c-3 -5 -1 -10 4 -10 6 0 11 5 11 10 0 6 -2 10 -4 10 -3 0
-8 -4 -11 -10z"/>
<path d="M2350 1516 c0 -2 7 -6 15 -10 8 -3 15 -1 15 4 0 6 -7 10 -15 10 -8 0
-15 -2 -15 -4z"/>
<path d="M1870 1502 c0 -10 33 -42 43 -42 15 0 5 19 -18 34 -14 9 -25 13 -25
8z"/>
<path d="M1320 1480 c0 -5 4 -10 9 -10 6 0 13 5 16 10 3 6 -1 10 -9 10 -9 0
-16 -4 -16 -10z"/>
<path d="M3350 1481 c0 -6 4 -13 10 -16 6 -3 7 1 4 9 -7 18 -14 21 -14 7z"/>
<path d="M3265 1453 c-40 -21 -38 -19 -25 -40 9 -13 10 -14 7 -2 -6 18 24 39
60 42 12 0 19 5 17 9 -8 12 -25 9 -59 -9z"/>
<path d="M1200 1425 c16 -18 21 -29 13 -32 -8 -3 -5 -12 9 -29 22 -25 40 -25
19 0 -9 11 -8 15 4 20 8 3 15 11 15 18 0 9 -3 9 -10 -2 -8 -12 -10 -12 -15 2
-4 9 -19 24 -33 34 l-27 17 25 -28z"/>
<path d="M2642 1423 c-9 -3 -4 -10 13 -19 34 -18 68 -18 62 -1 -2 6 -12 11
-21 11 -9 -1 -16 2 -16 7 0 10 -17 11 -38 2z"/>
<path d="M2896 1422 c-15 -3 -16 -6 -5 -13 11 -6 8 -9 -8 -9 -24 0 -30 -23
-14 -49 7 -11 10 -9 16 8 5 16 12 20 26 16 11 -4 25 0 34 8 13 13 13 16 0 27
-8 7 -15 9 -15 4 0 -5 -4 -4 -8 1 -4 6 -16 9 -26 7z"/>
<path d="M2470 1410 c0 -5 5 -10 11 -10 5 0 7 5 4 10 -3 6 -8 10 -11 10 -2 0
-4 -4 -4 -10z"/>
<path d="M3069 1418 c-1 -2 -3 -19 -4 -39 l-2 -37 36 22 c27 15 31 22 18 24
-9 2 -17 10 -17 18 0 11 -26 21 -31 12z"/>
<path d="M3254 1392 c-6 -4 -14 -17 -18 -29 -8 -26 11 -32 32 -11 9 9 12 6 12
-14 l0 -26 47 14 c25 8 56 14 69 14 32 0 37 14 13 36 -18 16 -19 16 -13 1 9
-24 -13 -21 -28 3 -14 22 -30 27 -22 7 2 -7 -4 -24 -16 -37 -19 -21 -20 -22
-20 -4 0 11 5 25 12 32 9 9 8 12 -5 12 -11 0 -17 -8 -17 -21 0 -17 -2 -18 -13
-7 -8 7 -16 19 -18 25 -2 7 -9 9 -15 5z"/>
<path d="M3418 1393 c7 -3 16 -2 19 1 4 3 -2 6 -13 5 -11 0 -14 -3 -6 -6z"/>
<path d="M2515 1380 c-3 -5 -14 -10 -25 -10 -36 0 -32 -49 5 -50 6 0 5 -3 -1
-8 -6 -4 -15 -17 -18 -30 -6 -19 -3 -24 23 -33 17 -6 31 -16 31 -23 0 -7 17
-21 38 -31 37 -18 37 -18 12 -26 -23 -7 -23 -7 8 -8 17 -1 32 4 32 10 0 7 12
10 30 7 32 -5 41 7 13 16 -10 3 -7 4 7 2 21 -2 25 2 24 22 0 14 -9 31 -18 38
-14 10 -15 17 -7 31 9 15 10 16 11 2 0 -9 7 -20 16 -23 33 -13 34 -5 4 25 -24
25 -28 34 -19 45 15 18 3 32 -13 16 -7 -7 -20 -12 -30 -12 -10 0 -18 -4 -18
-10 0 -5 5 -10 12 -10 6 0 9 -3 5 -6 -11 -11 -47 7 -48 24 0 14 -2 13 -8 -3
-5 -11 -6 -26 -3 -33 4 -12 1 -12 -18 0 -18 10 -24 10 -27 1 -3 -7 -9 -13 -14
-13 -5 0 -1 12 11 28 12 17 18 35 14 50 -7 23 -19 29 -29 12z m139 -135 c3 -8
3 -15 0 -15 -3 0 -12 7 -20 15 -13 13 -13 15 -1 15 8 0 17 -7 21 -15z"/>
<path d="M2790 1376 c0 -2 7 -9 15 -16 9 -7 15 -8 15 -2 0 5 -7 12 -15 16 -8
3 -15 4 -15 2z"/>
<path d="M2718 1359 c-22 -12 -23 -39 -2 -39 8 0 12 -4 9 -10 -3 -5 -1 -10 4
-10 6 0 11 7 11 15 0 8 -4 15 -10 15 -5 0 -10 4 -10 9 0 5 10 7 21 4 15 -4 20
-2 17 7 -6 18 -19 21 -40 9z"/>
<path d="M2020 1333 c30 -12 28 -27 -6 -50 -37 -25 -86 -31 -83 -10 5 38 -1
48 -28 45 -31 -3 -57 -46 -46 -74 3 -9 0 -20 -8 -24 -22 -14 0 -24 49 -21 15
1 22 7 22 21 0 16 6 20 28 18 15 -1 46 -1 70 0 36 2 42 5 42 23 0 18 2 19 15
9 12 -10 13 -16 4 -26 -6 -8 -17 -14 -25 -14 -19 0 -28 -20 -15 -33 9 -9 11
-8 6 6 -4 9 -3 17 3 17 9 0 22 -31 22 -53 0 -5 -19 -6 -42 -2 -32 4 -39 3 -28
-4 13 -10 13 -12 0 -20 -12 -8 -12 -13 4 -30 21 -23 13 -49 -10 -30 -10 8 -14
8 -14 0 0 -6 -9 -11 -20 -11 -11 0 -20 -4 -20 -10 0 -5 7 -10 15 -10 8 0 15
-5 15 -11 0 -6 -7 -9 -15 -5 -8 3 -15 0 -15 -7 0 -13 53 -37 82 -37 9 0 18 5
20 11 3 8 14 8 40 1 34 -9 37 -8 42 14 6 22 12 24 64 24 44 0 63 5 80 20 12
11 25 20 29 20 4 0 15 4 23 10 12 8 12 11 -2 27 -9 10 -18 32 -20 48 -2 20
-11 33 -26 40 -14 6 -21 16 -19 26 5 18 -37 44 -53 34 -5 -3 -30 6 -56 20 -26
14 -55 25 -64 25 -10 0 -23 7 -30 15 -7 8 -20 15 -29 14 -13 0 -14 -2 -1 -6z
m200 -86 c0 -7 10 -24 23 -37 24 -28 32 -50 18 -50 -5 0 -8 -8 -7 -17 0 -10
-7 -19 -18 -21 -11 -2 -16 0 -12 7 4 6 0 11 -8 11 -9 0 -13 6 -10 14 5 12 -28
30 -49 27 -4 -1 -15 6 -24 15 -16 15 -14 16 18 9 19 -4 38 -11 44 -16 5 -5 15
-9 23 -9 11 0 12 3 3 13 -6 8 -8 17 -4 20 3 4 -1 7 -10 7 -17 0 -23 21 -10 33
10 11 23 8 23 -6z m-113 -63 c-2 -13 0 -24 4 -24 5 0 9 -6 9 -14 0 -13 81 -46
117 -46 17 -1 17 -2 -1 -15 -22 -17 -40 -20 -31 -6 6 11 -25 31 -47 31 -7 -1
-2 -8 12 -16 14 -8 17 -13 7 -10 -10 3 -23 6 -28 6 -5 0 -9 5 -9 10 0 6 -11
21 -24 33 -26 24 -41 61 -31 77 11 18 27 -1 22 -26z m81 -36 c-3 -7 -12 -14
-22 -14 -15 -2 -15 -2 0 3 14 4 14 7 3 14 -11 7 -10 9 4 9 11 0 17 -6 15 -12z
m-112 -19 c10 -11 12 -19 5 -24 -6 -3 -11 1 -11 9 0 9 -4 16 -10 16 -5 0 -10
-10 -10 -22 0 -13 -5 -30 -10 -38 -6 -10 -8 -3 -3 23 4 25 2 37 -6 37 -7 0
-10 4 -7 8 9 14 35 10 52 -9z m31 -41 c-3 -8 -6 -5 -6 6 -1 11 2 17 5 13 3 -3
4 -12 1 -19z m-23 -33 c-7 -17 -20 -20 -28 -6 -4 5 0 12 6 14 23 9 28 7 22 -8z
m46 5 c8 -5 11 -10 5 -10 -5 0 -17 5 -25 10 -8 5 -10 10 -5 10 6 0 17 -5 25
-10z m-124 -47 c-5 -12 -10 -13 -18 -5 -8 8 -8 15 3 28 15 18 25 4 15 -23z"/>
<path d="M3085 1330 c3 -5 11 -10 16 -10 6 0 7 5 4 10 -3 6 -11 10 -16 10 -6
0 -7 -4 -4 -10z"/>
<path d="M1945 1310 c4 -6 11 -8 16 -5 14 9 11 15 -7 15 -8 0 -12 -5 -9 -10z"/>
<path d="M3345 1309 c-4 -6 -4 -13 0 -17 3 -3 10 0 14 7 6 8 16 11 31 6 15 -5
20 -4 16 4 -9 14 -53 14 -61 0z"/>
<path d="M2866 1295 c-3 -8 -1 -15 4 -15 6 0 10 7 10 15 0 8 -2 15 -4 15 -2 0
-6 -7 -10 -15z"/>
<path d="M1970 1290 c-13 -8 -13 -10 2 -10 9 0 20 5 23 10 8 13 -5 13 -25 0z"/>
<path d="M3295 1280 c-3 -5 3 -10 14 -10 12 0 21 5 21 10 0 6 -6 10 -14 10 -8
0 -18 -4 -21 -10z"/>
<path d="M3260 1269 c0 -5 5 -7 10 -4 6 3 10 8 10 11 0 2 -4 4 -10 4 -5 0 -10
-5 -10 -11z"/>
<path d="M3427 1253 c-4 -3 -7 -13 -7 -22 1 -13 3 -13 15 3 8 10 19 15 26 10
8 -4 10 -3 5 4 -8 13 -29 16 -39 5z"/>
<path d="M3483 1245 c0 -7 6 -11 14 -8 7 3 13 6 13 8 0 2 -6 5 -13 8 -8 3 -14
-1 -14 -8z"/>
<path d="M1973 1216 c-9 -11 -8 -15 9 -19 11 -3 17 -3 14 0 -3 4 -1 12 5 20
16 18 -12 17 -28 -1z"/>
<path d="M2816 1214 c-4 -10 -14 -14 -26 -11 -11 3 -18 1 -14 -4 3 -5 13 -9
23 -9 22 0 46 26 33 34 -6 3 -13 -1 -16 -10z"/>
<path d="M2867 1204 c3 -9 9 -12 12 -7 3 4 10 11 15 16 5 4 0 7 -12 7 -15 0
-20 -4 -15 -16z"/>
<path d="M2920 1191 c0 -5 9 -7 20 -4 11 3 20 7 20 9 0 2 -9 4 -20 4 -11 0
-20 -4 -20 -9z"/>
<path d="M2500 1175 c0 -8 6 -15 13 -15 12 0 46 19 37 21 -3 0 -15 2 -27 5
-16 3 -23 -1 -23 -11z"/>
<path d="M1794 1169 c-2 -5 10 -16 28 -25 30 -16 32 -16 19 -1 -12 15 -10 18
10 26 21 8 19 9 -14 9 -21 -1 -40 -5 -43 -9z"/>
<path d="M2942 1168 c7 -19 35 -21 41 -3 5 11 0 15 -19 15 -16 0 -24 -5 -22
-12z"/>
<path d="M2795 1159 c15 -7 9 -8 -22 -5 -24 2 -43 0 -43 -4 0 -5 -12 -10 -27
-12 -25 -3 -24 -4 9 -9 20 -3 34 -1 32 3 -3 4 9 5 25 2 17 -4 37 -4 46 -1 21
9 7 37 -19 36 -21 0 -21 -1 -1 -10z"/>
<path d="M1505 1150 c3 -5 11 -10 16 -10 6 0 7 5 4 10 -3 6 -11 10 -16 10 -6
0 -7 -4 -4 -10z"/>
<path d="M2630 1145 c-8 -9 -17 -12 -24 -7 -6 5 -22 3 -36 -4 l-25 -14 25 0
c14 0 32 -5 40 -10 12 -8 10 -10 -10 -10 -32 -1 -10 -14 40 -25 31 -7 33 -6
21 9 -12 14 -10 16 15 16 21 0 25 3 15 9 -8 5 -21 7 -29 3 -11 -4 -13 -2 -6 9
22 36 0 56 -26 24z"/>
<path d="M1555 1114 c9 -9 19 -13 23 -10 3 4 0 11 -8 16 -24 15 -33 11 -15 -6z"/>
<path d="M1585 1080 c-3 -5 -1 -10 4 -10 6 0 11 5 11 10 0 6 -2 10 -4 10 -3 0
-8 -4 -11 -10z"/>
<path d="M1844 1075 c11 -8 28 -15 39 -15 12 0 17 -5 14 -14 -7 -18 18 -42 28
-26 3 5 1 10 -4 10 -6 0 -10 3 -9 8 2 4 -5 18 -15 32 -9 13 -17 19 -17 12 0
-9 -5 -10 -19 -2 -29 15 -39 12 -17 -5z"/>
<path d="M2878 1083 c6 -2 18 -2 25 0 6 3 1 5 -13 5 -14 0 -19 -2 -12 -5z"/>
<path d="M2693 1073 c9 -2 23 -2 30 0 6 3 -1 5 -18 5 -16 0 -22 -2 -12 -5z"/>
<path d="M2745 1060 c3 -5 11 -10 16 -10 6 0 7 5 4 10 -3 6 -11 10 -16 10 -6
0 -7 -4 -4 -10z"/>
<path d="M1580 1052 c0 -10 73 -52 90 -52 13 0 -17 25 -57 48 -27 14 -33 15
-33 4z"/>
<path d="M2836 1027 c4 -13 2 -17 -5 -13 -6 4 -11 2 -11 -3 0 -18 76 -13 91 5
13 15 11 17 -17 12 -23 -3 -31 -1 -27 8 3 8 -3 12 -16 11 -16 -1 -20 -6 -15
-20z"/>
<path d="M2720 1023 c0 -6 6 -14 13 -17 6 -3 -5 -5 -25 -3 -21 2 -38 1 -38 -3
1 -35 77 -37 117 -2 19 16 22 22 9 18 -12 -4 -17 -2 -13 6 3 9 -6 13 -29 13
-19 0 -34 -5 -34 -12z"/>
<path d="M2337 910 c4 -5 40 -10 78 -11 39 -2 85 -9 104 -17 18 -7 47 -12 65
-10 31 4 30 4 -9 11 -22 5 -56 12 -75 17 -48 12 -174 20 -163 10z"/>
<path d="M2856 905 c-3 -9 0 -15 9 -15 9 0 12 6 9 15 -4 8 -7 15 -9 15 -2 0
-5 -7 -9 -15z"/>
<path d="M2130 791 c0 -5 11 -12 25 -15 26 -7 35 -25 13 -27 -7 0 -4 -5 7 -10
15 -7 10 -8 -20 -5 -59 7 -24 -8 74 -33 87 -22 137 -27 89 -10 -38 14 -45 39
-11 39 32 0 22 11 -27 30 -19 8 -37 17 -40 20 -8 11 -110 20 -110 11z"/>
<path d="M2344 739 c-3 -5 6 -9 20 -9 31 0 34 6 6 13 -11 3 -23 1 -26 -4z"/>
<path d="M2795 718 c-50 -19 -50 -19 -10 -13 22 4 47 13 55 21 8 8 12 13 10
13 -3 -1 -27 -10 -55 -21z"/>
</g>
</svg>
